<svg xmlns="http://www.w3.org/2000/svg" width="685" height="811" viewBox="0 0 685 811"><path d="M72.027 177.922c2.37 1.875 4.051 4.438 5.894 6.79 1.118 1.427 2.375 2.753 3.374 4.265 1.796 2.72 3.44 6.588 4.797 9.546 2.512 5.105 4.91 10.408 8.274 15.036 1.08 1.486 3.318 3.894 4.558 5.266 4.027 4.395 8.312 8.504 12.78 12.44 3.23 2.444 5.916 5.54 9.23 7.867 1.072.526 3.011 1.488 3.942 1.87 1.127.464 2.302.807 3.428 1.274 4.28 1.776 8.41 3.956 12.59 5.948 7.417 3.966 14.322 8.723 21.835 12.512 10.195 4.453 21.545 3.478 32.398 3.544 6.753-.175 13.532.378 20.283.112 3.039-.12 5.099-.471 8.157-.875 9.55-2.567 18.993-5.508 28.46-8.362 5.382-1.622 12.051-3.478 17.417-5.407 2.092-.752 4.124-1.658 6.186-2.488-10.382.783 89.49-24.912 95.555-62.481.428-2.651.305-5.375.137-8.054-.568-9.064-3.65-17.64-6.286-26.242-1.095-2.745-2.04-5.555-3.285-8.235-2.745-5.908-5.001-9.02-8.437-14.474-1.489-2.364-5.242-8.128-6.473-11-.474-1.107-.618-2.328-.928-3.492.445-.495.724-1.22 1.335-1.484.761-.328 1.66-.054 2.483-.16 1.073-.139 2.189-.176 3.195-.574 1.439-.568 2.709-1.494 4.039-2.284 19.353-11.499-10.295 5.813 10.392-6.223 34.576-19.161 1.846-1.066-80.677 46.845-1.126.654 2.283-1.253 3.436-1.86 2.786-1.468 5.665-2.685 8.527-3.994 7.543-3.38 15.246-3.24 23.3-2.826 8.203.286 16.48 1.579 23.935 5.124.818.438 1.662.832 2.455 1.316 2.3 1.402 4.3 3.173 6.772 4.315 11.536 5.33-1.616-1.725 11.547 5.684 8.012 4.952 15.95 9.925 23.474 15.603 2.44 1.84 4.751 3.849 7.222 5.648 5.675 4.133 9.357 6.238 15.296 9.885 2.562 1.306 5.08 2.704 7.687 3.918 3.672 1.71 12.193 5.073 15.972 6.55 9.12 3.568 18.282 7.03 27.452 10.468 23.293 9.904-3.921-1.775 17.632 7.79 2.74 1.216 5.533 2.311 8.271 3.533 6.817 3.04 13.49 6.416 20.224 9.63 6.292 2.652 12.556 5.35 18.757 8.208l88.545-60.597c-7.332-1.12-14.531-2.779-21.578-5.126-6.17-1.954-8.208-2.54-14.449-4.771-17.658-6.311 1.389.306-16.858-6.404-3.023-1.112-6.11-2.043-9.124-3.179-3.173-1.196-6.286-2.542-9.43-3.813-8.494-3.984-16.918-8.201-25.526-11.935-4.794-2.08-10.697-4.266-15.551-6.222-2.548-1.027-5.077-2.098-7.616-3.146-2.554-1.226-5.183-2.306-7.663-3.676-2.602-1.437-5.066-3.11-7.559-4.73-10.05-6.533-19.389-13.931-27.67-22.629l-4.429-4.998c-1-1.383-1.877-2.866-3.002-4.149-2.875-3.277-7.551-4.7-11.133-6.951-8.664-3.437-17.559-6.203-26.81-7.556-8.115-.676-16.26-2.224-24.409-1.322-1.143.225-2.31.35-3.43.673-1.182.34-2.302.868-3.45 1.31-2.923 1.124-5.496 2.035-8.242 3.607-88.832 50.866-64.087 35.436-99.13 57.397-2.416 1.56-8.676 5.554-10.852 7.184-3.575 2.678-7.058 5.111-8.355 9.716-1.184 4.205.614 6.41 2.274 9.909 1.11 1.217 2.16 2.49 3.328 3.651 4.896 4.87 4.044 2.99 8.729 8.795 4.721 5.85 8.395 12.454 11.23 19.398.724 2.611 1.682 5.169 2.174 7.834.936 5.074 1.113 10.14-.294 15.159-.541 1.932-1.38 3.82-2.54 5.456-.979 1.38-2.501 2.28-3.751 3.42l83.433-47.614c-2.362 1.505-4.632 3.167-7.087 4.514-11.856 6.508-25.826 10.128-39.23 11.512-9.857 2.053-19.828 3.862-29.926 4.034-2.045.017-4.092.123-6.136.05-1.838-.066-3.665-.31-5.497-.468-5.1-.442-10.238-.807-15.239-1.96-4.918-1.511-9.712-3.577-14.228-6.058-1.407-.773-2.73-1.69-4.13-2.475-1.372-.769-2.788-1.455-4.183-2.182-2.518-1.511-5.13-2.87-7.593-4.47-2.972-1.931-5.376-4.512-8.203-6.626-3.39-1.66-6.87-3.272-9.659-5.877-4.488-3.292-9-6.551-12.836-10.622-5.01-5.104-10.14-10.117-13.66-16.433-1.943-3.275-3.64-5.862-5.07-9.44-.675-1.69-1.084-3.476-1.638-5.211-.96-3.012-2.135-5.994-2.613-9.134l-96.546 55.683z" style="fill:#fff;fill-opacity:1" transform="translate(-67.646 -63.526)"/><path d="M98.37 154.105c1.05 1.66 1.233 3.567 1.21 5.495-.023 1.912-.16 2.802-.73 4.553-.136.42-.343.815-.515 1.222 8.439-3.791 17.085-7.151 25.317-11.373.46-.236-.227-1.035-.136-1.543.114-.648.436-1.245.734-1.831 1.302-2.559 3.144-4.741 4.967-6.931.554-.598 1.083-1.219 1.661-1.793.47-.466.949-.926 1.477-1.323.423-.318 1.82-1.083 1.364-.814l-21.504 12.686c.324-.171.62-.41.972-.514.468-.14.967-.14 1.451-.209.643.076 1.293.104 1.928.228 1.074.21 2.67.77 3.705 1.137a58.918 58.918 0 0 1 4.033 1.603c.275.143 1.017.482 1.287.763 7.007 7.3-31.909 27.305 23.432-14.935.398-.303-.714-.702-1.051-1.073-.371-.407-.714-.839-1.071-1.259-.626-.964-1.348-1.91-1.671-3.04-.108-.378-.313-.853-.087-1.174.18-.256 1.2-.21.939-.038-7.181 4.713-15.308 8.114-21.804 13.734-1.206 1.043 3.103.734 4.655 1.101 1.765.85 3.58 1.601 5.295 2.546 3.414 1.88 6.2 3.895 9.231 6.303 2.179 1.731 3.953 3.314 5.879 5.28.612.624 1.178 1.291 1.767 1.938 1.295 1.794.778.94 1.623 2.516l22.407-13.927c-2.12-1.053-.947-.498-3.53-1.638-3.62-1.673-7.228-3.358-10.7-5.33-3.326-1.89-6.37-3.72-9.285-6.23-1.302-1.12-2.419-2.438-3.628-3.657-.668-1.117-.774-3.773-2.005-3.35-16.037 5.507-29.492 4.763-24.016 13.628.243.394.536.754.784 1.145.99 1.56.844 1.405 1.622 3.129.161.527.372 1.042.484 1.582.063.306-.233 1.093.036.935 7.882-4.613 15.355-9.902 23.22-14.545.246-.146.162.652-.037.858-.447.462-1.565-.56-1.924-.133-3.467-.773-6.982-1.481-10.168-3.13-.52-.22-1.015-.508-1.56-.658-.467-.129-1.017-.399-1.444-.168-18.769 10.146-19.716 7.233-26.313 17.545-1.608 2.445-3.238 4.861-5.069 7.149-.645.807-1.226 1.684-2 2.367-.52.457-1.213.667-1.82 1l24.656-10.992c-.198-.125-.49-.167-.596-.377-.521-1.035-.453-3.034-.396-4.008.142-2.435.689-4.787 1.626-7.037L98.37 154.105zM159.915 131.15c1.17.83 2.407 1.57 3.51 2.486 3.103 2.575 5.595 5.456 8.369 8.375 1.647 1.734 3.319 3.445 4.96 5.184 4.368 4.626 6.108 6.574 10.4 11.278 3.01 3.133 7.193 7.542 10.325 10.596 1.632 1.592 3.24 3.215 4.987 4.68 1.878 1.576 3.872 3.01 5.87 4.43 4.181 2.968 10.073 6.662 14.34 9.393 6.188 4.136 12.014 8.769 17.477 13.817 2.74 2.532 5.34 5.218 7.947 7.885.975 1.032 1.936 2.077 2.926 3.095l22.419-14.731a31.391 31.391 0 0 1-5.036-1.447c-2.205-.844-4.934-1.866-7.05-2.787-8.886-3.869-17.352-8.689-25.18-14.406-2.204-1.797-4.43-3.567-6.612-5.39-3.81-3.18-7.491-6.51-11.302-9.69-5.063-4.224-5.939-4.566-10.808-9.164-1.829-1.727-3.548-3.568-5.322-5.352-1.683-1.9-3.43-3.746-5.049-5.703-3.483-4.212-5.509-7.176-8.473-11.709-2.098-3.207-4.19-6.314-5.545-9.927-.467-1.245-.634-2.583-.951-3.875l-22.202 12.963z" style="fill:#fff;fill-opacity:1" transform="translate(-67.646 -63.526)"/><path d="M295.208 182.728c-.453-.052-.915-.05-1.359-.156-10.01-2.367-16.9-10.355-23.356-17.75-1.288-1.48-2.534-2.996-3.864-4.439-1.295-1.406-2.684-2.723-4.007-4.104-2.271-2.373-4.407-4.874-6.687-7.238-1.613-1.672-4.022-3.866-5.753-5.471-3.832-3.255-8.137-5.884-12.003-9.097-1.302-1.081-3.969-3.586-5.227-4.752-.765-.774-1.552-1.528-2.297-2.322-3.468-3.699-.309-.565-3.475-3.915-1.706-1.805-3.629-3.379-5.456-5.056-.533-.567-1.083-1.118-1.599-1.7-1.263-1.424-2.435-2.929-3.723-4.333-1.647-1.719-.855-.87-2.378-2.541-.275-.345-.535-.703-.827-1.034-.832-.95-1.133-1.21-2.091-1.982-.783-.63-1.513-1.13-2.112-1.938.025-.03.051-.122.074-.091 12.806 17.541-9.242 8.153-46.03 30.289-.564.34 1.318-.111 1.975-.058 1.22.1 3.913.758 5.038 1.013.973.224 1.937.49 2.918.672 1.315.243 2.649.372 3.966.602 1.365.238 2.716.552 4.079.801 3.623.665 6.331 1.12 10.052 1.439 2.243.192 4.494.265 6.74.398 7.018.28 14.01.92 21.02 1.33 2.187.129 4.373.314 6.564.357 1.524.03 14.462-.174 15.807-.193 5.983-.123 9.595-.099 15.557-.609 2.77-.237 5.527-.61 8.29-.923a822.05 822.05 0 0 0 21.719-2.755c10.552-1.826 21.08-3.779 31.617-5.697 5.922-1.305 11.93-2.12 17.926-2.982 1.536-.094 3.006-.592 4.52-.814.381-.056.767-.077 1.152-.096.259-.013.551.127.777 0 16.078-9.124 32.03-18.469 48.045-27.703-1.234-1.724-1.934-4.002-3.703-5.172-1.139-.752-2.733-.066-4.095.018-1.892.117-3.772.378-5.656.584-3.33.365-13.31 1.555-16.139 1.794-3.38.287-6.772.43-10.158.645-15.288 1.116-30.567-.571-45.856-.586-11.602-.01-12.197.273-23.907 1.19-12.932 1.484-25.938 2.174-38.892 3.39-.5.048-1.065-.104-1.503.144-15.903 8.997-31.846 17.945-47.405 27.526-.534.328-.401 1.234-.307 1.853.267 1.752 1.444 3.632 2.869 4.672.79.577 1.777.816 2.666 1.224 1.03.44 2.04.935 3.092 1.319 1.625.593 3.285 1.09 4.935 1.609 6.322 1.987 8.528 2.522 15.106 4.691 6.225 2.052 11.448 3.985 17.623 6.213 9.552 4.006 6.915 2.717 15.907 7.183 6.708 3.33 8.375 4.13 14.745 7.964 4.044 2.433 8.812 5.602 12.777 8.195 1.559 1.25 3.202 2.4 4.676 3.75 1.042.954 2.079 1.954 2.847 3.14.412.638 1.239 1.775.606 2.195-.74.491-3.229-.446-2.492-.943 43.971-29.662 63.162-23.147 42.566-29.208-1.247-.911-2.628-1.662-3.74-2.734-6.63-6.384-10.387-15.953-11.662-24.94-.242-1.708-.179-3.445-.268-5.167 16.068-14.484-25.73 13.426-36.344 23.087-2.708 2.466 7.351-.57 10.986-.124 8.459 1.038 17.566 4.437 25.273 7.894 3.693 1.656 7.208 3.683 10.811 5.525 8.325 4.854 16.34 10.307 23.24 17.08 4.707 4.619 8.543 10.005 12.503 15.246 2.954 3.7 5.237 7.829 7.469 11.98.517.96.976 1.955 1.552 2.882.503.81 3.038 4.206 3.643 5.023 1.636 2.44 3.745 4.538 5.414 6.95.19.273.195 1.013.493.866 16.646-8.186 32.994-16.965 49.491-25.448-1.038-1.416-1.845-3.034-3.115-4.246-1.197-1.143-2.838-1.715-4.163-2.706-1.836-1.374-3.554-2.898-5.307-4.376-2.134-1.8-4.11-3.796-6.354-5.458-8.652-6.41-10.47-6.593-20.703-11.415-12.337-4.131-14.49-5.006-26.715-8.519-5.36-1.54-13.38-4.173-19.333-3.767-2.15.147-4.4.666-6.191 1.864-14.417 9.634-28.114 20.304-42.171 30.456.275 2.923.055 5.935.825 8.768 1.677 6.163 5.856 12.33 10.073 16.974 2.267 2.496 4.873 4.669 7.46 6.833a92.168 92.168 0 0 0 7.332 5.547c2.287 1.555 4.742 2.849 7.113 4.273 3.97 1.965 7.605 4.06 11.93 5.155 1.481.375 7.43 1.25 9.238.298 47.227-24.857 39.837-10.27 48.783-30.542-.047-1.66.245-3.366-.14-4.982-.445-1.87-4.628-10.578-5.377-12.125-.977-2.018-1.909-4.061-2.996-6.022-2.575-4.642-3.67-5.856-6.736-9.997-1.435-1.77-3.585-4.616-5.392-6.204-15.047-13.223-47.899 25.062-49.641 26.283-1.045.732 4.3 6.848 4.525 7.125 2.33 2.729 4.841 5.299 6.939 8.22.982 1.367 1.815 2.703 2.28 4.315l47.108-28.177c-4.172-3.029-8.765-5.661-11.294-10.376-.23-.808-.751-1.586-.691-2.423.023-.33 1.183-.589.894-.429-15.219 8.424-30.425 16.872-45.686 25.22-.737.404 1.278-1.252 2.108-1.38 2.96-.458 4.856 1.618 7.035 3.112 1.28 1.188 2.678 2.261 3.842 3.563 4.993 5.582 9.224 13.826 7.603 21.52-.249 1.18-1.02 2.183-1.53 3.275-14.247 11.66-4.74 3.647 38.193-20.68 1.398-.792-2.81 1.603-4.34 2.094-6.836 2.191-12.53.392-19.178-1.473-2.568-1.078-5.22-1.972-7.703-3.233-2.66-1.352-5.288-2.812-7.689-4.586-6.958-5.14-13.219-12.543-13.832-21.597-.17-2.505.72-4.968 1.079-7.452-11.917 5.786-23.582 12.124-35.751 17.358-2.713 1.167 4.486-4.042 7.244-5.099 7.12-2.729 15.824-1.707 22.976-.39 12.708 2.338 13.098 3.407 24.51 8.799 2.975 2.182 6.15 4.116 8.926 6.547 3.916 3.43 7.949 8.529 10.557 13.103.501.88 4.099 7.773 3.074 9.861-.366.747-1.17-1.181-1.756-1.772l49.242-25.233c-1.038-.248-1.344-.255-2.362-.836-1.99-1.135-3.608-2.81-5.23-4.395-7.653-8.159 4.085 4.439-3.947-4.483-1.594-1.77-3.653-3.658-5.298-5.342-3.42-3.505-3.843-4.089-7.22-7.918-1.48-1.48-2.88-3.045-4.44-4.441-3.27-2.928-8.672-6.85-12.144-9.31-2.586-1.833-5.132-3.732-7.828-5.397-7.965-4.92-11.11-5.982-19.809-9.908-11.163-5.03-22.506-9.778-32.793-16.51-2.362-1.545-4.153-6.1-6.78-5.07-50.885 19.93-52.051 9.204-47.293 30.303 2.788 5.71 5.628 11.386 7.885 17.337.958 2.525 1.77 5.102 2.643 7.657.796 2.333 1.44 4.722 2.361 7.008.686 1.704 1.631 3.292 2.447 4.938 12.184 18.472 2.606 6.19 51.061-23.662.888-.547-1.54-1.443-2.469-1.918-1.046-.535-2.26-.655-3.36-1.065-4.35-1.62-6.675-2.85-11.017-4.904-5.118-2.821-8.727-4.815-13.884-7.637-3.688-2.02-11.467-6.33-15.254-8.094-2.898-1.35-13.894-5.717-16.763-6.869-3.948-1.694-12.066-5.084-15.98-7.127-5.81-3.031-10.997-6.975-15.863-11.33-.31-.387-.568-.824-.932-1.162-.143-.133.155.36.253.53.215.377.414.769.685 1.108.142.177.73.306.534.42-53.898 31.75-59.246 35.507-42.976 24.356 1.243-.572 2.457-1.215 3.73-1.715 3.43-1.348 9.4-3.152 12.72-4.036a210.326 210.326 0 0 1 31.55-5.861c3.872-.272 7.738-.648 11.615-.816 7.783-.336 14.851-.163 22.63.069 4.985.148 17.356.636 22.368 1.01 3.37.252 6.727.664 10.09.995 4.788.35 10.705.779 15.568 1.154 1.723.133 3.452.202 5.167.412 1.125.138 2.237.375 3.341.631.412.096 1.296.834 1.197.423-.406-1.682-1.484-3.126-2.225-4.688l47.49-27.177c-.872.416-1.346.69-2.323.936-1.771.448-3.645.536-5.342 1.29-1.724.454-3.432.968-5.16 1.401-5.143 1.29-10.358 2.3-15.484 3.659-5.068 1.17-10.163 2.242-15.226 3.43-6.327 1.485-12.6 3.207-18.983 4.447-5.713 1.122-9.012 1.822-14.81 2.742-10.297 1.633-20.717 2.517-31.136 2.82-22.126-.6 6.37.256-14.415-.624-2.24-.095-4.483-.082-6.723-.157-6.692-.227-13.415-.492-20.027-1.634-4.668-.952-9.386-1.817-13.986-3.075-4.332-1.184-2.725-.867-6.641-2.231-.832-.29-1.678-.534-2.517-.802-1.109-.42-2.9-1.018-3.94-1.701-.41-.27-.654-1.225-1.09-.996-27.412 14.389-59.888 11.962-47.422 30.226.178.26.475.416.713.624 1.997 1.221 4.089 2.338 5.835 3.912 1.834 1.57 3.487 3.334 5.32 4.904.544.467 1.14.873 1.681 1.343.63.548 1.222 1.14 1.833 1.709 1.788 1.74 3.498 3.533 5.432 5.115 4.97 4.065-1.019-.921 4.468 3.35.897.699 1.746 1.457 2.618 2.185.929.81 1.836 1.646 2.786 2.43 1.987 1.638 4.055 3.175 6.046 4.808 1.009.828 4.76 3.989 5.847 4.797.95.706 1.959 1.33 2.938 1.996 3.569 2.331 7.102 4.67 10.436 7.335 5.075 4.056 3.328 2.88 8.341 7.335 1.514 1.345 3.072 2.638 4.608 3.958 5.33 4.67 10.415 9 14.008 15.268.94 1.642 1.42 3.512 2.236 5.22.49 1.026 1.41 2.395 2.09 3.435l46.661-30.701zM108.579 228.213c.3 1.105.744 2.181.9 3.315.53 3.887.138 7.584-.136 11.48-.505 7.167-1.218 14.32-1.84 21.479-.945 11.968-1.913 23.967-2.244 35.972-.423 8.73.4 17.436 1.035 26.132.81 6.403.672 12.858 1.198 19.282.272 2.597 1.329 4.98 2.134 7.428.34 1.03 1.222 4.256 1.566 5.186.416 1.124.934 2.209 1.4 3.313 3.434 7.16 4.023 15.11 5.642 22.769.896 5.542 1.748 11.115 3.177 16.549.218.905.396 1.82.652 2.715.964 3.379 1.23 3.406 2.216 6.857 1.004 3.519 1.53 7.079 1.999 10.697.175 1.24.383 2.477.526 3.721.77 6.702-.133 1.463 1.058 8.715.924 5.62 2.144 11.163 3.028 16.791 2.479 12.824 5.881 25.43 8.713 38.173 1.947 8.967 4.673 17.729 6.827 26.641 3.38 13.992-.58-1.279 2.896 11.875 1.936 6.088 4.066 12.214 7.063 17.881 1.47 2.78 3.628 6.005 5.301 8.613 6.04 8.076 10.5 17.153 15.426 25.911 7.126 12.67 1.915 2.709 8.43 15.61 6.61 13.475 12.732 27.219 20.678 39.975 3.795 6.703 9.562 11.857 14.403 17.75 2.648 3.223 5.918 7.578 8.43 10.873 1.434 1.994 2.864 3.992 4.302 5.983 1.464 2.026 2.984 4.013 4.404 6.07 2.64 3.827 4.982 7.855 7.63 11.678 3.009 4.34 5.292 7.097 8.574 11.254 1.59 1.886 3.192 3.762 4.77 5.658 4.07 4.885 4.74 5.952 9.014 10.582 5.024 5.44 10.544 10.38 15.922 15.46 7.082 7.199 14.813 13.715 22.128 20.664 3.157 3 6.192 6.125 9.318 9.156 6.804 6.75 15.219 11.578 23.344 16.555 6.18 3.576 13.316 4.364 19.977 6.56 5.314 1.794 10.62 3.594 15.878 5.566 1.83.845 1.066.413 2.338 1.211l91.602-63.072-3.805-.312c-2.675-.351-5.294-.759-7.857-1.647-1.673-.58-4.022-1.732-5.72-2.222-.999-.288-2.037-.417-3.055-.626-10.284-2.708 3.753 1.076-6.894-2.094-3.097-.923-6.304-1.335-9.432-2.106-1.075-.265-2.124-.624-3.186-.936-3.967-1.197-7.905-2.558-11.604-4.458-4.556-2.34-8.678-5.446-13.191-7.861-4.481-3.014-6.374-4.13-10.63-7.678-7.66-6.383-14.606-13.62-22.013-20.281-1.744-1.76-3.53-3.478-5.23-5.28-1.644-1.742-3.197-3.565-4.796-5.348-1.532-1.679-3.035-3.384-4.596-5.036-2.497-2.643-6.921-6.923-9.289-9.66-1.538-1.778-2.922-3.684-4.383-5.525-16.686-22.311 8.299 11.174-8.084-11.042-5.69-7.715-11.606-15.254-16.733-23.37-6.444-10.366-12.79-20.99-21.46-29.683-2.735-3.273-5.041-5.905-7.517-9.416-6.05-8.58-10.722-18.052-15.875-27.168-3.97-7.736-7.618-15.582-11.221-23.495-1.209-2.654-5.05-11.247-6.18-14.1-.827-2.088-1.523-4.226-2.285-6.34-.728-1.843-2.88-7.404-3.806-9.363-2.495-5.278-5.846-10.138-7.994-15.587-1.515-3.72-2.824-6.756-4.078-10.607-2.799-8.595-4.407-17.536-6.444-26.327-2.892-12.485-5.733-25.033-7.488-37.733-.602-5.656-1.152-11.313-1.3-17.004-.043-1.674.037-3.35-.012-5.024-.076-2.588-.414-6.34-.624-8.93-1.328-7.187-3.087-14.291-3.957-21.559-1.021-5.453-2.216-10.833-4.15-16.047-1.89-7.7-4.474-15.214-5.957-23.007-.647-5.29-1.94-10.444-2.879-15.687-1.238-5.841-2.295-11.733-2.818-17.688-.73-8.193-2.19-16.333-1.986-24.587-.162-11.321-.786-22.641.02-33.962.861-10.883 1.9-23.796 6.908-33.668.694-1.369 1.706-2.551 2.559-3.827l-100.637 47.263z" style="fill:#fff;fill-opacity:1" transform="translate(-67.646 -63.526)"/><path d="m177.379 160.668-99.691 49.414c.137.64.381 1.264.412 1.918.032.695-.508 3.862-.604 4.428-.38 2.236-.829 4.38-1.484 6.55-1.593 4.112-2.52 8.448-3.367 12.764-1.108 4.552-.492 9.224-.301 13.84.127 5.362.4 10.877 1.64 16.113 1.603 3.715 1.873 7.74 2.725 11.635.186.832.34 1.672.559 2.496.937 3.549 1.94 7.032 2.638 10.645.49 2.53.872 5.082 1.33 7.619.83 6.174 1.834 12.323 2.7 18.492.972 5.135 2.596 10.14 4.332 15.064 2.341 6.507 3.515 13.32 4.834 20.083 1.112 9.072 2.298 18.113 4.404 27.013 2.099 6.95 3.523 14.077 4.808 21.227-1.616.86-2.923 1.601-4.59 2.48.578.434 1.441.64 1.733 1.301.06.136.082.673.137.889-.382.219-.771.423-1.153.642-.871.502.798 1.472 1.621 2.399.248 2.433.423 4.959.452 5.636.255 6.034.158 12.099-.8 18.075-.587 5.502-1.332 10.96-.616 16.492.842 9.133 1.552 18.29 3.763 27.228.574 2.31 2.708 10.985 3.336 13.162 1.93 6.69 4.299 13.247 6.44 19.872-14.218 3.532-15.286 4.154-4.088 11.466.05.136.107.269.16.403 2.31 5.807.491 1.256 3.072 7.699 5.032 11.91 10.436 23.674 14.85 35.836 2.089 5.776 2.492 7.106 4.584 11.623 1.98 8.904 3.536 17.908 5.451 26.828 1.007 9.022 5.076 14.94 10.8 21.637 2.385 3.124 4.942 6.1 7.409 9.154 2.062 2.553 3.921 5.13 6.139 7.563 3.255 3.908 7.107 7.237 10.636 10.88 1.261 1.302 6.044 6.578 7.143 7.786 5.87 7.565 10.62 15.962 15.105 24.406 2.984 6.374 7.178 12.007 11.561 17.469 4.548 4.808 8.472 10.11 12.07 15.65.748 1.058 1.528 2.094 2.242 3.176 6.199 9.382-2.218-2.865 4.012 6.334 1.993 2.942 4.172 5.706 6.422 8.453 4.385 4.736 8.322 9.829 12.494 14.752 4.161 4.335 8.526 8.474 12.826 12.672 3.76 2.69 6.538 6.414 9.739 9.683 2.58 2.636 3.258 3.046 6.224 5.475 6.345 5.592 12.187 11.727 18.24 17.633 4.918 5.495 11.329 9.16 17.489 13.047 6.9 3.998 13.523 8.403 20.152 12.824 4.765 2.968 9.309 6.29 14.166 9.101 5.908 3.135 11.559 6.712 17.293 10.147 1.95.779 3.513 2.225 5.315 3.25.595.339 2.88 1.258 3.373 1.517.65.342 1.254.766 1.88 1.149 3.696 2.089 7.41 4.069 10.924 6.435.043.02.09.028.133.05 4 1.963 7.733 4.431 11.684 6.491.644.336-1.163-.87-1.744-1.306-.056-.172-.343-.562-.168-.516 1.135.3 2.17.898 3.261 1.332 1.322.526 2.65 1.04 3.977 1.549 1.283.493 4.765 1.719 5.564 2.264a103.07 103.07 0 0 1 3.202 2.296c16.068-11.269 43.633-28.604 90.431-55.093-1.94-6.524-.736-3.575-3.408-8.928l-97.426 52.78c-2.095-1.406-.844-.372-3.142-3.727 29.893-16.9 59.625-34.09 89.671-50.715-3.316.14-6.023-1.95-8.535-3.998-3.96-3.055-7.57-6.624-12.154-8.776-.603-.334-1.234-.623-1.809-1.003-1.656-1.098-1.837-1.678-3.627-2.524-.57-.27-1.21-.355-1.798-.58-1.859-.71-2.875-1.296-4.694-2.22-6.122-1.985-11.705-4.986-16.879-8.823-2.33-1.533-4.73-2.972-6.998-4.598-2.074-1.486-2.577-2.07-4.789-3.38-.856-.508-1.763-.926-2.644-1.39-7.861-3.89 1.916.83-6.438-2.806-5.15-2.242-9.691-5.588-14.363-8.658-9.964-7.105 3.213 2.34-6.139-4.51-1.056-.773-3.95-2.728-5.021-3.6-.845-.686-1.592-1.487-2.438-2.173-.847-.688-1.756-1.295-2.634-1.942-3.855-2.998-1.91-1.419-5.83-4.75-1.03-.821-2.134-1.546-3.163-2.369-3.537-2.83-6.761-6.018-9.724-9.443-2.36-2.85-4.797-5.538-7.352-8.211-.407-.426-4.45-4.63-4.875-5.129-.772-.908-1.45-1.892-2.176-2.838-4.198-4.11-8.736-7.87-12.433-12.47-4.628-4.289-8.953-8.864-12.807-13.868-4.582-5.11-9.044-10.417-12.353-16.463l-2.053-3.2c-.67-.997-1.361-1.981-2.012-2.991-2.448-3.8-4.615-7.807-7.85-11.035-1.942-2.287-4.104-4.317-6.019-6.625-2.48-2.988-1.754-2.212-4.035-5.51-.736-1.063-1.49-2.113-2.234-3.17-5.8-8.195-11.055-16.766-17.356-24.605-2.027-2.88-4.092-5.73-6.098-8.623-2.895-4.178-5.574-8.521-9.23-12.108-4.572-5.347-9.756-10.138-14.18-15.615-3.907-5.53-7.202-11.458-10.049-17.602a225.545 225.545 0 0 1-3.013-7.378c3.49-1.95 6.942-3.973 10.449-5.89-2.166-4.893-4.551-9.676-5.283-15.05-1.291-4.957-2.093-9.958-2.178-15.096-.212-5.548-.754-11.089-2.422-16.416-1.014-3.828-2.402-7.559-3.303-11.416-1.02-4.37-1.506-8.875-2.978-13.14-2.849-8.448-5.953-16.809-9.629-24.938-.195-.46-.353-.936-.547-1.396.005-5.62.064-11.238.016-16.86.063-3.117.163-4.252-.063-7.302-.368-4.974-1.558-9.842-2.34-14.756-.246-1.48-.421-2.975-.74-4.442-2.38-10.953.207 3.368-2.057-8.101-.82-4.157-1.2-8.405-2.287-12.512-.394-1.881-1.236-5.768-1.539-7.707-.153-.98-.131-1.984-.338-2.953-.555-2.609-2.11-5.54-2.892-8.084-.662-1.826-1.214-3.699-1.854-5.54 4.657-17.403 14.998-21.19-2.593-7.747-1.46-4.974-2.635-10.021-3.135-15.197-1.009-9.142-1.763-18.31-2.965-27.43a126.213 126.213 0 0 0-4.107-21.969c-.967-4.922-1.907-9.859-3.235-14.697-1.383-5.845-3.33-11.56-4.332-17.506-1.29-7.109-2.567-14.24-2.525-21.494-.385-4.314-1.33-8.493-2.643-12.611-.983-4.391-2.091-8.469-1.398-13.055.44-4.299 1.322-8.484 2.289-12.692.893-4.103 1.794-8.194 2.846-12.26.267-1.562.62-3.525.828-5.103.322-2.445.412-5.005.996-7.408.187-.772.523-1.5.785-2.25zM482.355 798.67c.224-.01.425.06.655.03 1.196-.69 3.404.055 4.19-1.315.277-.486.855-1.909.364-1.639-1.744.96-3.466 1.96-5.209 2.924zM136.236 585.246l.02.037c-.012-.008-.022-.022-.033-.03l.013-.007zM409.7 143.82c14.864.19 29.671 1.594 44.386 3.616a144.72 144.72 0 0 1 38.72 11.79c3.543 2.225 7.55 3.565 11.053 5.858 7.409 4.851-3.343-1.23 8.264 4.981 12.278 6.45 25.413 11.003 38.551 15.337 6.13 2.538 12.738 3.394 19.029 5.375 4.263 1.343 5.936 2.181 10.054 3.943 11.042 4.353 22.411 7.992 33.904 10.97 8.186 1.704 16.533 2.823 24.868 3.516 4.146.495 8.416.131 12.53.888 27.402 28.494 3.975 5.24 93.615-61.969 1.173-.88-2.091-2.15-3.424-2.76-1.221-.558-2.654-.407-3.978-.625-6.158-1.013-4.08-.656-10.837-2.182-12.836-2.687-24.394-9.025-36.538-13.693-13.78-4.378-28.097-6.638-42.32-9.04-12.888-2.064-25.7-4.49-38.696-5.78-12.884-.975-25.626-3.084-38.418-4.814-9.669-1.419-19.445-1.453-29.061-3.29-6.204-1.184-8.439-1.958-14.326-3.646-4.593-1.42-9.085-3.168-13.515-5.032-1.838-.773-3.668-1.746-5.6-2.295-1.293-.366-2.623-.584-3.934-.876-4.549-.921-9.156-1.736-13.78-2.187-2.04-.198-4.093-.23-6.134-.42-5.21-.48-7.917-.946-13.065-1.7-8.315-1.85-16.594-3.725-25.031-4.922-44.393-9.122 21.252-26.04-103.038 55.113-1.269.829.779 2.93 1.168 4.396L441.62 95.34c29.915-22.958 4.596-3.423-92.235 52.22-.647.372 1.386-.584 2.12-.716 2.372-.428 3.974-.08 6.385.156 9.336 1.34 18.757 1.476 28.12 2.573 3.553.592 8.63 1.373 12.172 2.213 1.728.41 3.394 1.064 5.129 1.447 1.432.316 2.909.394 4.354.647 2.52.442 5 1.103 7.53 1.494 8.967 2.537 18.242 3.584 27.365 5.415 4.777.89 10.823 1.96 15.53 3.08 8.91 2.118 17.622 5.3 26.86 5.763 13.06 1.74 26.232 2.445 39.287 4.26 6.155 1.002 12.353 2.039 18.554 2.717 7.056.772 14.17 1.096 21.204 2.1 6.56.815 8.396.889 14.832 2.298 8.132 1.78 16.059 4.476 24.019 6.872 12.43 3.631 25.123 7.096 36.485 13.453 3.248 1.76 4.957 2.585 7.92 4.522.583.381 1.082 1.602 1.679 1.243.552-.332-1.413-1.348-.886-1.719 92.936-65.495 88.36-99.908 92.816-60.647-4.803.656-9.679.627-14.512.92-8.706.352-17.42.727-26.1-.383-7.585-.972-15.134-2.266-22.41-4.706-1.83-.614-3.598-1.402-5.393-2.113-1.7-.673-3.394-1.359-5.09-2.038-6.61-2.92-13.131-6.604-20.13-8.534-3.184-.879-7.21-1.32-10.443-1.77-12.494-2.411-25.092-5.183-35.622-12.754-3.766-3.7-7.92-8.4-12.555-11.012-2.349-1.324-5.093-1.91-7.647-2.625-14.981-4.242-30.467-6.248-45.752-9.079-11.525-2.525-23.567-4.699-34.109-10.215L409.7 143.82z" style="fill:#fff;fill-opacity:1" transform="translate(-67.646 -63.526)"/><path d="M441.335 189.013c14.297-.43 28.353 2.064 42.357 4.585 9.43 1.87 18.7 4.47 28.077 6.563 3.624.81 7.295 1.4 10.914 2.233 8.021 1.846 12.161 3.192 19.952 5.493 12.268 4.004 24.405 8.483 36.07 14.02 5.597 3.159 11.521 5.629 17.31 8.406.916.423 1.811.893 2.747 1.27 4.16 1.678 3.334.899 7.83 2.952 3.542 1.617 6.7 3.737 9.77 6.096 3.887 3.051 4.466 6.621 4.87 11.247 1.073 7.638.097 15.379-.554 23.012-1.49 10.05-3.595 19.958-4.794 30.056-.99 11.303-3.042 22.462-4.705 33.676-1.435 8.743-2.918 17.451-3.165 26.322-.067 1.405-.16 2.81-.2 4.216-.163 5.55.135 3.912-.405 9.49-.414 4.283-1.154 8.516-1.568 12.802-.018 1.426-.104 2.853-.054 4.279.057 1.652.315 3.293.375 4.945.302 8.3-.257 16.64-.735 24.92-.069 2.663-.129 5.326-.205 7.988-.088 3.047-.082 6.1-.287 9.14-.906 13.449-3.445 26.804-6.268 39.957-2.127 10.532-5.105 20.894-7.173 31.438-4.933 25.154 2.648-10.538-2.635 13.943-1.667 8.973-4.964 17.582-6.602 26.558-.3 1.648-.48 3.315-.721 4.973-1.934 9.05-4.589 17.957-6.13 27.09-.374 2.214-.646 4.442-.968 6.663-1.457 8.682-3.769 17.202-6.788 25.462l95.497-45.955c.675-8.124 1.817-16.216 4.084-24.07 1.516-4.646 2.935-8.733 4.168-13.433 1.88-7.17 3.027-14.53 5.163-21.639.513-1.806 1.089-3.596 1.539-5.419 2.063-8.36 2.183-17.028 3.698-25.478 2.58-17.138-.747 4.282 2.399-13.749 1.735-9.944 2.885-19.999 3.829-30.044 2.418-19.818 5.853-39.492 9.351-59.143 1.66-12.111 3.012-24.254 4.506-36.382.375-5.71.324-11.465.87-17.162.157-1.639.443-3.263.644-4.896.185-1.505.343-3.013.515-4.52.439-3.915.87-7.823 1.034-11.763.112-2.68.022-5.367.17-8.046.092-1.66.286-3.312.429-4.967 1.412-11.378 3.115-22.712 5.47-33.936 1.731-9.971 2.665-20.04 4.17-30.046 2.17-14.063-.385 2.661 1.567-10.622.834-5.674 1.891-11.421 1.143-17.171-1.752-6.922-5.112-13.529-10.701-18.124-3.743-2.055-7.642-3.929-11.256-6.208-2.197-1.386-4.15-3.14-6.375-4.481-.817-.493-1.718-.832-2.577-1.248-6.185-3.033.44.075-5.742-2.41-1.18-.475-5.375-2.504-6.495-2.87-2.661-.872-5.559-.898-8.136-2.095-5.777-1.875-11.554-3.989-17.43-5.53-8.32-2.184-16.856-3.57-25.243-5.452-8.86-2.059-11.763-2.61-20.56-5.159-3.284-.95-6.504-2.112-9.79-3.05-9.087-2.594-18.35-4.585-27.42-7.249-2.805-.805-5.6-1.64-8.413-2.416-8.462-2.336-17.294-4.122-25.025-8.46l-91.398 63.398z" style="fill:#fff;fill-opacity:1" transform="translate(-67.646 -63.526)"/><path d="M584.993 209.03c2.264.283 4.363 1.31 6.588 1.742.506.098 1.025.103 1.538.155l1.837.377c2.237.05 4.237 1.155 6.38 1.628.534.118 1.984.226 2.574.276 2.076.264 4.326 1.911 6.162 2.913.654.417 1.326.809 1.964 1.25 4.422 3.062-.003.162 4.16 3.222 2.723 2.002 5.612 3.825 8.397 5.738 3.617 2.757 7.835 5.047 10.922 8.447 1.452 4.236 1.952 8.803 2.402 13.258 1.29 8.957 2.166 17.964 3.25 26.946 1.317 7.899 1.44 15.857 1.372 23.835.315 5.476.332 10.96.585 16.439.375 6.673.023 13.359.002 20.038.426 7.683.523 15.363.333 23.055-.111 1.451-.172 2.908-.333 4.355-.16 1.432-.452 2.847-.629 4.278-.793 6.4-1.377 12.843-1.985 19.264-.52 8.467-3.293 16.518-5.026 24.76-.809 5.607-1.836 11.174-3.174 16.68-1.364 6.598-3.13 13.057-5.212 19.457-.825 6.09-2.067 12.221-4.484 17.893-.533 3.39-1.596 6.648-2.373 9.98-1.161 4.976.137 1.072-1.572 5.629-1.356 6.914-3.457 13.655-5.763 20.304-1.469 9.163-4.89 17.995-8.79 26.385-2.013 5.386-3.662 10.85-4.702 16.503-1.237 7.896-3.09 15.4-5.428 23.039-.441 1.365-.876 2.733-1.324 4.097-.82 2.497-1.831 5.315-2.495 7.863-1.107 4.252-1.824 8.637-2.703 12.94-1.847 7.972-4.154 15.827-6.706 23.6-1.48 3.443-1.96 7.183-2.97 10.758-.317 1.118-.793 2.185-1.124 3.299-2.189 7.364.493-.404-1.894 6.254-1.04 7.834-4.014 15.249-6.872 22.568-.31.655-2.15 4.88-2.982 5.537-.511.403-2.515.59-1.928.308 33.753-16.185 68.089-31.17 101.498-48.053 1.016-.514.077-2.288.324-3.4.45-2.021 1.17-3.973 1.756-5.96.934-2.457 1.792-4.942 2.802-7.368 1.736-4.174 5.226-11.431 7.153-15.51 3.422-7.244 6.968-14.367 10.733-21.439 6.681-12.857 13.197-25.79 19.37-38.9 2.57-5.406 5.125-10.842 7.113-16.496 1.764-5.015 3.021-10.211 4.538-15.303 1.155-4.629 2.834-9.136 3.83-13.806.864-4.042 1.136-8.116 1.286-12.23.475-7.635.698-15.334 2.067-22.879.775-4.278 1.871-8.19 2.962-12.382 1.735-6.243.908-3.271 2.48-8.916l-96.758 47.447c-.027 4.752.021 2.227-.171 7.573-.344 4.524-.434 6.908-1.207 11.524-1.395 8.338-3.934 16.448-5.12 24.83-1.768 8.047-2.522 16.31-4.966 24.213-2.813 10.105-6.456 19.967-10.535 29.627-5.51 12.825-11.936 25.205-17.972 37.786-2.713 5.731-3.976 8.318-6.579 14.148-4.61 10.327-8.797 20.863-14.401 30.718-1.457 2.48-2.896 4.97-4.372 7.44-1.246 2.085-6.056 7.107-3.794 6.222 33.971-13.299 66.815-29.313 100.222-43.97-.333-.39-.908-.666-1-1.171-.12-.652 1.073-5.161 1.117-5.34 2.192-7.96 4.933-15.753 7.61-23.559 1.303-6.66 3.169-13.177 5.088-19.683 2.064-7.866 3.916-15.767 5.469-23.752 2.079-8.215 4.888-16.223 6.898-24.46a326.868 326.868 0 0 1 7.402-24.386c1.524-4.958 2.566-10.023 3.954-15.016 2.094-9.121 4.737-18.198 8.832-26.638 2.167-6.928 3.514-14.106 6.368-20.813 1.38-5.469 3.138-10.837 4.593-16.288.807-5.9 1.684-11.854 3.783-17.456 1.589-6.46 2.296-13.124 4.44-19.454 1.54-5.932 3.21-11.881 3.498-18.04.588-7.804.925-15.632 1.804-23.412 1.553-9.712 3.369-19.405 3.678-29.264.474-8.071.683-16.146.993-24.223-.007-6.704-.33-13.414.026-20.114.21-5.913.233-11.857-.408-17.745-1.64-7.464-3.976-14.798-4.162-22.521-.525-4.747-1.066-9.495-1.297-14.268-.313-6.466.002-2.965-.147-9.416-.032-1.373-.128-2.744-.192-4.115-.475-3.61-.769-7.203-1.044-10.833-.2-2.636-.2-4.84-1.127-7.384-.386-1.06-1.081-1.98-1.622-2.97-.571-.517-1.106-1.077-1.715-1.55-3.652-2.833-8.591-4.093-12.278-6.979-2.677-1.88-4.51-3.612-6.936-5.728-1.822-1.588-3.868-2.94-5.321-4.918-2.23-2.728-4.94-4.76-7.964-6.542-1.219-.605-2.109-1.15-3.45-1.428-.459-.095-.938-.033-1.403-.086-1.756-.2-3.463-.683-5.095-1.355-2.155-.416-1.076-.138-3.233-.846-1.628-.34-3.428-.038-4.914-.993l-92.5 62.76z" style="fill:#fff;fill-opacity:1" transform="translate(-67.646 -63.526)"/><path d="M537.842 564.172c.283.668.618 1.317.848 2.006 1.59 4.763 2.136 9.866 2.666 14.83.736 6.895.696 7.94 1.067 14.934.353 8.558.09 17.161.89 25.7.399 4.254.89 6.004 1.766 10.153 3.084 9.499 6.063 19.034 8.438 28.742.922 5.65 2.368 11.222 3.066 16.91.43 3.5.37 4.447.45 7.882-.082 6.252.835 9.676 4.715 14.473 2.286 2.431 5.006 4.261 8.198 5.25.57.126 2.463.572 3.084.596.284.011.943.111.84-.155-.064-.168-3.04-4.592-3.724-4.953-.399-.211-.861.271-1.292.407l-1.53 1.563c-.665.593-1.364 1.151-1.994 1.781-.714.713-1.305 1.544-2.033 2.242-.786.753-1.673 1.392-2.499 2.101-3.086 2.648-2.618 2.273-5.61 5.088-2.934 2.507-6.255 4.647-8.95 7.432-3.105 3.207.058.766-3.395 3.166-5.075 5.03-11.171 8.997-17.082 12.977-1.488.9-2.992 1.773-4.464 2.7-3.48 2.19-3.788 2.663-7.222 4.52-.916.495-1.9.859-2.813 1.36-1.534.841-2.713 1.763-4.116 2.783-2.47 2.655-.465.7-2.938 2.677-.413.33-.75.758-1.195 1.042-.39.25-.87.321-1.278.539-1.15.612-1.18.82-2.068 1.794-2.563 1.864-4.898 4.037-7.41 5.963-1.57 1.205-5.429 3.768-6.971 4.808-4.147 2.939-8.648 5.304-13.062 7.8-1.29.729-5.137 2.958-3.855 2.216 89.7-51.911 119.546-67.344 86.462-50.18-1.663.623-3.003 1.82-4.565 2.619-.72.369-1.515.58-2.243.936-2.417 1.183-4.765 2.62-7.054 4.028-8.456 4.59-16.988 9.025-25.756 12.997-6.467 2.954-13.207 5.207-19.902 7.565-4.33 1.026-8.7 3.193-13.24 2.912-31.688 19.277-65.408 35.554-95.065 57.83-2.899 2.177 3.5 6.438 5.977 9.084.702.749 2.007.508 3.033.536 2.972.081 5.77-.703 8.674-1.163 1.491-.236 2.993-.405 4.49-.607 6.144-.774 12.209-2.054 18.317-3.049 1.307-.318 2.33-.482 3.534-1.078.548-.272 1.02-.684 1.566-.96 2.397-1.208 4.915-1.962 7.515-2.564 3.725-.727 7.569-.571 11.303-1.146 3.176-.848-.94.157 2.655-.383.403-.061.776-.26 1.177-.334.462-.086.955-.001 1.404-.143.434-.137.779-.473 1.186-.676.552-.274 1.126-.502 1.688-.753.637-.319 1.24-.717 1.91-.957.867-.31 1.788-.436 2.675-.683 2.869-.8 5.512-1.965 8.49-2.275 1.927-.714 3.997-.994 5.92-1.718 1.035-.39 1.994-.954 2.999-1.415 3.337-1.532 6.69-3.01 10.092-4.39 37.45-14.621 60.078-33.647 103.126-58.608 7.753-4.495-3.097 2.108 4.32-2.45 2.331-2.174 4.697-4.121 6.372-6.891.396-.653.873-1.291 1.057-2.033.246-.99.139-2.035.208-3.053-1.05-7.876-1.266-15.303-3.936-22.934-2.75-7.855-5.853-13.493-9.584-21.082-9.51-18.098-4.723-9.867-16.588-28.48-3.384-5.308-6.695-10.664-10.195-15.897-3.67-5.486-7.677-10.742-11.31-16.252-8.641-13.104-10.08-16.284-17.343-29.462l-5.356-11.201-82.272 48.707 9.3 8.775c3.583 3.893 7.376 7.603 10.749 11.68 9.407 11.369 13.703 18.293 20.978 31.237 2.993 5.326 5.993 10.667 8.507 16.235 5.233 11.59 6.768 18.452 10.172 30.355.623 4.243 1.467 8.46 1.87 12.728.493 5.246.389 12.208-.177 17.602-.33 3.15-1.072 7.568-2.521 10.497-.541 1.093-1.483 1.937-2.225 2.906-3.35 2.04-6.496 4.455-10.037 6.145-2.585 1.576-1.284.729-3.897 2.552 30.47-17.535 60.835-35.248 91.3-52.789.788-.454-1.51 1.012-2.261 1.525-.825.563-1.592 1.218-2.466 1.7-.996.551-2.08.925-3.119 1.387-3.15 1.521-6.351 2.863-9.596 4.17-.925.373-1.907.616-2.793 1.073-.733.378-1.305 1.02-2.03 1.412-.6.323-1.276.477-1.913.715-.633.293-1.233.674-1.9.88-1.585.488-3.275.55-4.883.955-1.454.366-2.796 1.133-4.269 1.416-.653.125-1.33.028-1.996.043-.94.19-1.954.134-2.829.527-.365.164-.56.587-.906.787-.368.212-.823.233-1.201.427-2.325 1.189.395.41-2.477 1.03-1.004.351-1.927.915-2.939 1.243-.63.203-1.302.236-1.95.376-2.401.52-4.707 1.436-7.205 1.41-2.538.22-5.058.243-7.59.49-.678.067-1.374.025-2.034.194-1.093.279-2.582 1.259-3.519 1.815-6.064 3.227-12.872 4.683-19.431 6.57-1.333.2-2.657.475-4 .6-1.354.127-3.845-.097-5.348.402-.226.075-.606.283-.51.501 18.775 43.107 37.89-11.325-90.085 65.798 3.917-3.298 9.125-3.937 13.935-5.212 8.353-1.892 16.018-5.789 23.948-8.92 4.736-1.977 9.468-3.951 14.18-5.982 2.11-.91 4.285-1.672 6.359-2.66.85-.406 1.645-.918 2.468-1.377a50.158 50.158 0 0 0 7.048-3.521c.746-.45 1.38-1.077 2.15-1.485.861-.457 1.808-.73 2.712-1.094l2.69-1.532c37.882-22.285 77.327-42.03 113.684-66.774 6.238-4.31 12.45-8.66 18.586-13.112.95-.518 1.64-.805 2.42-1.54.328-.31.554-.715.885-1.02 1.05-.966 2.297-1.84 3.622-2.367.603-.348 3.079-1.763 3.586-2.114 3.628-2.509 6.97-5.464 10.703-7.837 7.053-5.015 14.296-9.794 20.564-15.802 3.276-3.633 7.437-6.398 10.543-10.228 5.321-5.12 10.861-10.264 13.677-17.26.228-1.29.765-2.563.683-3.87-.115-1.823-.521-3.662-1.261-5.332-2.214-4.994-3.084-5.491-7.332-5.127-.344.042-.702.02-1.032.124-.988.315-.082.519-1.174.484-1.507-.048.089-.289-1.732-.713-.19-.044-.367.137-.55.206-2.58-.137-3.156-4.202-3.764-5.95-1.89-8.54-2.982-17.242-5.235-25.704-2.841-9.25-6.97-18.098-8.647-27.68-1.922-10.9-4.59-21.719-5.105-32.817-.08-2.472-.264-4.943-.239-7.416.096-9.425 1.315-19.003 3.907-28.065l-99.316 50.604z" style="fill:#fff;fill-opacity:1" transform="translate(-67.646 -63.526)"/><path d="M390.237 750.091c3.178 4.183 4.253 9.338 5.497 14.321 2.004 8.025 1.194 4.396 2.748 12.621 1.234 9.038 2.13 18.295 5.595 26.808 2.024 3.914 5.256 7.218 9.338 8.951 36.067 16.195 3.262 2.15 98.188-56.313.97-.598 1.154-1.967 1.689-2.974.797-1.5 1.75-2.94 2.305-4.546 1.545-4.472 2.736-12.719 3.48-17.03.793-15.698-2.22-31.213-3.114-46.829-.332-5.809-.404-11.632-.402-17.45.002-5.047-.153-10.12.412-15.136.416-3.683 1.678-7.22 2.517-10.831 25.711-33.818 2.902-2.525-86.26 51.294-.773.467-.04-2.872.817-2.586 1.893.631 3 2.67 4.205 4.262 3.767 4.98 4.644 8.293 6.99 14.08 3.812 11.449 5.522 23.463 5.59 35.514.034 5.95-.443 9.555-.995 15.344-.985 4.685-.98 9.473-1.382 14.214-.074.873.378 2.14-.366 2.603-.722.45-3.117-.442-2.392-.887 30.559-18.764 61.807-36.38 92.711-54.571-1.493-.182-3.091.036-4.478-.545-12.054-5.049-19.895-21.13-25.352-32.213-.713-1.898-1.883-3.683-2.139-5.694-.143-1.13.667-2.177 1-3.265-30.591 19.461-61.53 38.387-91.775 58.383-1.062.702 2.591-.584 3.814-.227 2.804.82 6.85 4.393 9.038 6.135 4.42 4 8.947 8.104 12.754 12.716 1.455 1.763 2.285 3.293 3.453 5.23 1.99 4.185 5.599 7.004 8.902 10.076 1.467 1.352.63 3.247.034 4.903-.146.521-.235 1.061-.436 1.563-.9 2.237-.578.26-1.3 2.72-.484 1.649-.63 3.48-.855 5.18-.5 3.42 1.215 6.597 1.287 10.023.024 1.167-.194 2.327-.29 3.491l96.369-48.537c.044-3.462-.108-4.15.6-7.597.8-3.895.658-1.962 1.46-4.792.109-.387.153-.789.23-1.183.79-3.332 1.95-6.531 1.709-10.037-.187-5.09-1.09-10.494-4.931-14.177-3.089-2.557-6.68-4.413-9.571-7.222-2.81-2.866-5.376-6.04-8.41-8.677-3.787-3.29-8.082-6.024-11.748-9.47-2.688-2.36-5.66-4.674-7.737-7.654-1.125-1.615-1.097-6.116-2.83-5.183-32.492 17.49-63.026 38.399-94.539 57.598 1.138.774 2.415 1.376 3.414 2.323 1.528 1.45 2.735 3.207 4.103 4.81 7.287 9.455 14.143 19.273 20.178 29.584 1.47 2.513 2.719 5.152 4.216 7.65 1.18 1.966 2.539 3.819 3.808 5.729 62.328-33.73 109.138-17.92 96.981-56.872-1.102-3.533-.6-.607-1.602-4.706-.71-2.906-1.027-5.9-1.771-8.798-.978-5.35-1.625-8.559-2.353-14.109-1.673-12.76-2.424-25.75-6.197-38.134-7.997-26.305 2.483 8.059-5.27-17.033-.747-2.42-1.261-4.919-2.196-7.272-1.271-3.204-1.307-10.87-4.404-9.357-101.126 49.391-114.61 27.925-90.685 61.12 1.18 2.688 2.684 5.255 3.537 8.063 1.305 4.298 2.209 8.721 2.907 13.159 2.787 17.712 2.309 34.351-2.087 51.786-1.148 4.55-3.018 8.888-4.526 13.331-1.67 3.21-3.065 6.578-5.01 9.628-2.629 4.12-6.561 8.205-10.27 11.45-1.268 1.11-5.45 3.943-3.988 3.105 92.896-53.23 88.427-89.09 92.48-51.863-.155.28-.345.545-.464.843-.15.371-.133.808-.337 1.152-.144.242-.436.357-.662.523-.91.671-1.47.761-2.51.169-5.54-5.097-6.901-13.673-8.74-20.59-1.758-9.993-2.89-20.421-1.195-30.502l-98.787 52.407z" style="fill:#fff;fill-opacity:1" transform="translate(-67.646 -63.526)"/><path d="M385.473 741.489c1.296.367 2.673.52 3.888 1.102 5.493 2.628 9.186 7.523 13.295 11.772 4.688 4.848 6.71 6.453 11.904 11.067 11.041 8.874 20.646 19.219 29.776 29.993 3.637 4.452 8.426 7.75 12.56 11.71 1.354 1.232 2.699 2.392 3.932 3.741l94.148-56.997c-1.616-1.826-3.06-3.88-5.25-5.069-4.604-3.031.815.626-4.249-3.122-1.541-1.14-3.243-2.056-4.702-3.313-.91-.68-1.742-1.473-2.711-2.066-1.01-.617-2.131-1.031-3.197-1.547-6.258-3.63-1.98-1.047-8.84-5.515-4.228-2.752-8.439-5.271-12.395-8.436-5.72-4.576-7.596-6.89-12.624-12.156-10.054-12.288-.341-.286-9.4-11.839-4.773-6.087-9.783-12.112-13.195-19.113l-92.94 59.788z" style="fill:#fff;fill-opacity:1" transform="translate(-67.646 -63.526)"/><path d="M405.597 833.568c-11.547-5.778-37.393-20.122-49.143-27.273-69.464-42.28-132.022-100.954-172.177-161.487-43.225-65.16-62.948-132.133-75.325-255.788-4.896-48.912-5.66-233.578-.986-238.14.894-.872 7.684-3.666 15.09-6.207 45.204-15.513 110.532-29.118 176.343-36.723 46.053-5.322 106.28-8.016 140.778-6.297 93.56 4.66 171.288 17.013 242.454 38.53 22.765 6.884 27.953 9.052 29.767 12.443 2.944 5.5 4.492 133.236 2.203 181.797-4.035 85.621-14.839 156.926-32.314 213.268-14.089 45.424-34.595 83.92-67.43 126.585-16.866 21.915-58.44 64.218-80.458 81.867-33.799 27.093-66.04 48.468-103.942 68.91-22.198 11.971-19.678 11.108-24.86 8.515zm-9.552-45.245c8.027-13.191 11.885-17.794 14.918-17.794 3.224 0 1.307-1.991-4.99-5.182-5.86-2.97-7.978-2.941-5.477.073.85 1.023 1.16 3.083.765 5.06-.908 4.54-7.621 16.24-8.66 15.094-.461-.507-1.866-6.77-3.123-13.915-2.977-16.926-3.718-18.62-9.413-21.526-4.378-2.233-4.662-2.257-3.855-.328 2.29 5.47 1.903 7.36-3.374 16.514-6.81 11.813-7.935 13.048-12.263 13.468-3.542.344-3.53.36 3.19 4.582 6.632 4.167 10.268 5.544 7.605 2.881-.746-.746-1.356-2.792-1.356-4.547 0-3.494 6.7-17.673 9.415-19.927 1.936-1.606 2.615 1.035 5.917 23.005 1.754 11.671 2.321 14.123 3.267 14.123.214 0 3.56-5.211 7.434-11.58zm57.562-.684c5.94-3.185 10.341-9.309 11.02-15.331.744-6.596-1.26-6.843-2.971-.367-2.057 7.784-6.97 12.15-13.656 12.138-8.082-.015-15.832-8.736-15.843-17.827-.007-6.065 2.465-9.932 7.386-11.556 3.212-1.06 4.656-.888 9.12 1.086 2.917 1.29 5.567 2.084 5.888 1.763.32-.321-.977-2.488-2.885-4.816-4.178-5.098-6.22-5.09-14.985.06-7.805 4.585-11.805 11.363-10.76 18.235 2.172 14.293 16.257 22.745 27.686 16.616zm-101.833-16.27c0-3.265 1.56-12.467 3.467-20.447 1.908-7.981 3.187-14.965 2.844-15.52-.747-1.209-6.788 1.765-17.167 8.451-9.945 6.407-16.584 9.729-19.443 9.729-1.267 0-2.304.413-2.304.917 0 .996 4.727 4.703 8.68 6.807 2.299 1.224 2.46 1.07 2.365-2.264-.11-3.878 4.357-8.853 7.942-8.845 2.012.005 9.258 4.018 9.258 5.127 0 .356-.57 2.907-1.265 5.669-1.067 4.237-1.812 5.164-4.771 5.93l-3.508.91 6.75 4.68c3.711 2.574 6.839 4.706 6.95 4.737.11.032.202-2.614.202-5.88zm131.414-3.203c4.553-3.164 9.673-6.595 11.378-7.626 2.48-1.499 3.079-2.666 2.995-5.828-.144-5.373-1.354-9.342-3.019-9.897-.9-.3-1.38.825-1.38 3.232 0 7.728-8.122 18.453-12.044 15.903-2.183-1.42-15.154-19.904-15.815-22.536-.417-1.664.072-3.414 1.349-4.825 1.346-1.487 1.533-2.214.571-2.214-1.691 0-14.58 8.122-14.672 9.246-.035.425 1.335.933 3.044 1.13 2.418.278 4.799 2.61 10.741 10.525 8.26 11 9.766 14.36 7.606 16.962-2.736 3.297 1.021 1.642 9.246-4.072zM307.96 742.954c-.69-.833-.909-2.468-.484-3.634 1.265-3.474 7.247-10.594 8.901-10.594 2.753 0 5.117 4.727 4.366 8.73-.382 2.034-.233 3.698.33 3.698 1.048 0 9.396-10.398 9.396-11.704 0-.398-1.683-.724-3.739-.724s-4.725-.727-5.931-1.615c-2.17-1.598-2.17-1.659.032-5.78 1.224-2.29 2.913-4.428 3.752-4.75.84-.322 3.5 1.34 5.91 3.696 3.638 3.552 4.443 5.16 4.723 9.44l.337 5.158 3.68-4.66 3.682-4.662-12.155-9.256-12.154-9.256-.664 4.028c-.407 2.472-3.196 7.335-7.214 12.58-6.978 9.111-10.051 11.856-13.275 11.856-1.105 0-2.008.423-2.008.94 0 1.624 12.914 10.593 13.354 9.273.23-.688-.148-1.932-.84-2.764zm208.815-.048c4.037-2.087 10.047-8.903 10.92-12.384.81-3.228-1.505-8.013-7.975-16.484-5.79-7.579-7.352-10.445-7.352-13.483 0-3.001-.482-2.943-5.16.625-4.293 3.275-4.924 4.95-1.863 4.95 2.115 0 11.732 9.337 15.888 15.427 3.47 5.083 3.165 10-.87 14.035-2.324 2.324-4.415 3.303-7.061 3.305-3.216.002-4.955-1.252-12.048-8.694-7.406-7.771-8.242-9.094-7.853-12.43.24-2.054 0-3.735-.533-3.735-.532 0-3.354 2.277-6.27 5.058-4.691 4.478-5.005 5.061-2.73 5.085 1.732.017 5.785 3.338 12.442 10.194 10.7 11.021 13.441 12.164 20.465 8.531zm-86.286-15.398c53.678-35.392 98.636-76.911 128.357-118.542 16.372-22.933 33.61-56.042 41.469-79.651 20.967-62.99 31.751-157.508 31.798-278.704.013-35.259-.13-38.1-1.963-38.68-5.345-1.69-66.461-13.29-83.323-15.814-21.694-3.247-51.735-6.678-76.827-8.774-25.5-2.13-98.713-1.789-125.974.586-54.375 4.738-101.331 11.8-141.508 21.282l-14.405 3.4.003 41.417c.008 126.246 11.626 220.247 35.21 284.89 23.967 65.692 82.95 133.21 162.504 186.018 19.665 13.054 22.893 15.046 24.419 15.069.691.01 9.8-5.613 20.24-12.497zm-145.808-9.175c2.813-1.367 5.115-2.892 5.115-3.39 0-.497-3.178-.906-7.062-.908-6.533-.003-7.427-.32-11.953-4.236l-4.893-4.234 10.817-10.593c9.886-9.681 11.11-10.535 14.214-9.914 1.868.373 3.396.293 3.396-.179s-2.796-3.62-6.214-6.994l-6.214-6.137v4.545c0 4.148-.785 5.356-8.962 13.802-7.655 7.905-9.507 9.256-12.688 9.256h-3.726l10.689 10.733c5.878 5.903 11.066 10.733 11.528 10.733.461 0 3.14-1.118 5.953-2.484zm267.634-7.645c11.014-11.425 12.041-14.4 6.786-19.657-2.937-2.936-3.87-3.278-9.45-3.454-2.126-.067-2.92-.788-3.21-2.914-.786-5.76-6.43-8.912-12.1-6.756-3.474 1.32-10.778 7.547-16.376 13.96l-3.823 4.38 3.734-.82c3.567-.783 4.19-.363 13.941 9.388 8.917 8.917 10.115 10.574 9.48 13.105-.4 1.593-.281 2.897.263 2.897.545 0 5.384-4.558 10.755-10.129zm-291.008-39.735c7.113-12.019 8.22-15.276 5.54-16.304-.816-.313-7.042 1.29-13.836 3.564-6.795 2.274-15.792 4.452-19.995 4.841l-7.64.708 4.247 5.312c2.336 2.922 4.595 5.337 5.02 5.367.424.03.933-1.344 1.13-3.053.266-2.318 1.46-3.645 4.698-5.227 4.27-2.085 4.39-2.083 7.344.112 4.167 3.098 4.426 7.447.731 12.292-2.203 2.889-3.574 3.75-5.165 3.244-3.258-1.033-2.64.591 2.509 6.598l4.661 5.439 1.867-5.514c1.026-3.033 5.026-10.853 8.889-17.38zm324.259 4.236c8.768-9.513 9.867-14.894 4.199-20.563-3.579-3.578-8.854-3.549-17.517.098-10.666 4.489-15.91 3.114-12.49-3.275 2.21-4.13 6.984-6.34 12.028-5.572l4.416.673-3.843-4.052c-3.008-3.172-4.272-3.823-5.816-2.997-3.227 1.727-10.955 11.098-11.743 14.24-.842 3.353 1.352 7.351 5.538 10.094 2.585 1.694 3.383 1.578 13.52-1.961 11.846-4.136 14.465-3.842 15.127 1.698.551 4.605-4.157 8.644-10.19 8.743-2.669.044-5.85.47-7.07.946-2.112.826-2.085.95.565 2.607 4.048 2.532 7.2 4.203 8.005 4.242.387.019 2.759-2.195 5.27-4.92zm-352.9-30.016c10.36-7.478 14.561-9.487 17.736-8.479 2.963.94 2.683.097-2.085-6.29-4.46-5.973-5.973-6.88-5.973-3.582 0 2.608-5.307 7.624-15.042 14.216-8.304 5.623-8.853 5.806-12.148 4.042-1.202-.643-2.185-.864-2.185-.49 0 1.313 2.623 5.66 6.095 10.104l3.508 4.49.352-3.616c.3-3.083 1.735-4.613 9.743-10.395zm373.414 3.718c5.131-7.166 5.693-8.965 2.219-7.105-3.024 1.618-7.488-.115-11.748-4.561l-3.077-3.212 3.378-4.897c5.277-7.65 7.698-9.481 10.116-7.652 5.498 4.16 8.212 7.38 8.212 9.745 0 4.097 1.707 3.115 6.104-3.51 4.58-6.9 4.919-7.953 2.087-6.497-2.62 1.348-3.96.793-13.275-5.496-10.263-6.928-14.122-10.608-14.122-13.465 0-1.272-.456-2.313-1.012-2.313-.968 0-8.027 10.205-8.027 11.604 0 .37 1.468.63 3.261.58 3.84-.11 10.687 4.377 9.882 6.474-1.504 3.919-9.068 12.976-10.837 12.976-3.652 0-7.955-4.397-7.955-8.128 0-2.877-.27-3.222-1.633-2.091-1.763 1.464-8.535 11.648-8.535 12.836 0 .399 1.251.154 2.78-.542 2.448-1.116 3.699-.673 10.446 3.696 10.834 7.014 16.149 12.037 16.149 15.262 0 1.482.226 2.693.503 2.693.276 0 2.564-2.879 5.084-6.397zm-385.203-12.697c0-.559-2.531-1.624-5.626-2.366-4.058-.974-6.612-2.473-9.164-5.38-3.073-3.5-3.468-4.662-2.998-8.828.705-6.258 4.206-11.023 10.244-13.946 6.936-3.357 11.515-3.079 15.54.946 3.786 3.786 4.256 8.045 1.593 14.42-2.14 5.12-1.559 5.746 2.592 2.79 6.154-4.382 6.325-5.047 3.007-11.667-3.789-7.56-5.656-9.676-10.906-12.355-5.44-2.777-10.306-2.707-16.383.236-12.11 5.862-15.363 20.246-6.788 30.012 1.977 2.252 5.13 4.764 7.005 5.581 3.905 1.702 11.884 2.076 11.884.557zm416.885-36.588c.008-.488-1.043-.321-2.336.37-1.903 1.019-3.478.706-8.282-1.644-10.895-5.33-19.872-11.744-19.872-14.197 0-3.885-2.065-2.544-5.616 3.647-3.972 6.926-4.216 8.141-1.268 6.3 1.792-1.119 3.365-.748 9.321 2.196 12.252 6.055 17.928 10.175 19.253 13.975l1.225 3.514 3.78-6.637c2.08-3.65 3.788-7.036 3.795-7.524zm-448.086 3.27c1.232-4.908 20.98-15.893 27.255-15.16 2.17.253 3.946.317 3.946.141 0-.175-1.763-3.5-3.918-7.388l-3.918-7.07-1.183 3.379c-1.302 3.716-4.606 6.227-16.213 12.319-8.158 4.282-11.774 4.953-14.226 2.64-1.94-1.83-1.416-.41 2.74 7.436 1.864 3.519 3.715 6.4 4.114 6.401.399.001 1.03-1.212 1.403-2.698zm457.61-20.829c3.27-7.485 3.044-10.458-.467-6.128-1.134 1.399-2.809 2.543-3.723 2.543-1.908 0-15.546-5.01-19.903-7.311l-2.929-1.547 3.39-1.3c2.79-1.072 23.78-7.677 31.398-9.881 3.881-1.123 1.093-3.165-12.842-9.406-11.52-5.16-14.223-6.828-15.1-9.321-.587-1.67-1.442-3.037-1.898-3.037-1.1 0-5.77 12.546-4.968 13.348.342.343 1.225.022 1.96-.713.735-.736 2.522-1.337 3.971-1.337 2.964 0 16.175 4.204 17.632 5.611.52.503-6.248 3.312-15.043 6.243-17.153 5.717-17.223 5.771-18.907 14.696l-.64 3.39 3.272-3.056 3.272-3.055 11.63 4.943c13.913 5.911 14.905 6.652 14.905 11.135 0 4.403 1.067 3.159 4.99-5.817zm-436.577-12.211c0-.698-10.19-25.437-11.338-27.528-.734-1.336-1.187-1.022-2.139 1.482-1.248 3.282-9.172 7.594-22.284 12.126-5.284 1.826-6.051 1.85-8.315.265-2.394-1.677-2.461-1.64-1.676.946 1.71 5.626 5.397 13.426 6.348 13.426.545 0 .99-1.3.99-2.887 0-2.404 1.048-3.367 6.258-5.752 5.013-2.295 6.585-2.592 7.908-1.494 2.167 1.799 2.099 5.603-.158 8.825-2.732 3.9-1.26 4.104 5.921.817l6.516-2.983-3.547-2.157c-1.95-1.186-4.096-3.184-4.767-4.438-1.014-1.894-.776-2.574 1.399-3.999 1.44-.944 4.207-2.034 6.146-2.422 3.327-.665 3.593-.46 4.736 3.656 1.622 5.843 1.526 8.272-.478 12.116-.929 1.78-1.688 3.401-1.688 3.603 0 .202 2.288-.412 5.084-1.365 2.796-.953 5.084-1.96 5.084-2.237zm-16.1-32.17c1.399-.523 2.542-1.27 2.542-1.658 0-1.569-7.088-24.924-8.19-26.988-1.15-2.153-1.212-2.144-2.127.33-1.164 3.144-5.344 4.985-18.734 8.25-10.127 2.468-10.472 2.48-12.71.454-2.902-2.626-3.003-1.15-.504 7.384 2.194 7.491 3.343 8.881 4.275 5.17.541-2.156 2.192-3.381 6.964-5.167 8.024-3.002 8.108-2.99 9.023 1.177.585 2.663.187 4.31-1.638 6.78-2.263 3.059-2.282 3.26-.32 3.26 3.18 0 12.663-3.463 12.663-4.625 0-.563-.602-1.023-1.34-1.023-2.142 0-6.568-4.72-6.568-7.004 0-2.255 4.04-4.294 8.507-4.294 5.192 0 6.859 9.11 2.79 15.252-3.668 5.54-3.05 5.85 5.367 2.702zm462.938-3.185c5.57-3.126 8.64-9.65 8.164-17.346-.226-3.663-1.115-7.243-2.024-8.154-1.407-1.41-1.568-.803-1.229 4.622.483 7.714-1.374 12.461-5.76 14.73-3.24 1.675-12.784 2.412-14.108 1.088-.356-.356.704-6.118 2.355-12.804 1.651-6.687 3.002-12.793 3.001-13.57-.005-4.312-12.45 1.321-16.633 7.528-10.2 15.137 9.642 33.219 26.234 23.906zM173.2 506.82c7.283-3.805 11.543-10.88 11.5-19.1-.084-15.887-14.708-25.399-29.045-18.89-8.169 3.708-11.866 12.635-9.493 22.918 2.46 10.656 9.143 16.654 18.565 16.661 2.982.002 6.795-.713 8.473-1.59zm491.466-12.428c7.525-3.931 12.092-12.059 10.75-19.13-.593-3.122-3.352-9.777-4.056-9.784-.14 0-.085 3.26.121 7.246.212 4.099-.196 8.315-.938 9.702-2.412 4.507-15.588 8.765-17.508 5.66-.381-.618.097-5.702 1.063-11.3.966-5.597 1.756-11.514 1.756-13.148 0-2.767-.273-2.928-3.965-2.329-8.858 1.438-15.013 10.18-13.494 19.17 1.8 10.65 17.053 18.729 26.271 13.913zm-519.37-53.606c-3.349-4.703-4.286-12.606-1.922-16.213 1.849-2.821 12.768-9.518 13.814-8.472.397.397 4.694 24.532 4.92 27.631.09 1.247 3.017-.39 6.785-3.794 16.013-14.466-1.889-37.539-21.402-27.584-11.06 5.643-13.028 18.247-4.467 28.612 4.093 4.954 5.83 4.817 2.272-.18zm514.945-7.358c4.734-1.475 11.402-3.322 14.82-4.106 7.468-1.71 10.458-3.132 9.579-4.554-.359-.58-4.186-3.155-8.505-5.721-4.32-2.566-7.853-5.055-7.853-5.532 0-.477 2.415-1.463 5.367-2.19 11.666-2.88 13.84-3.588 13.84-4.515 0-.53-6.197-4.45-13.77-8.712-7.574-4.262-15.485-9.364-17.58-11.336-2.224-2.094-3.978-3.035-4.213-2.26-1.228 4.049-1.581 10.884-.593 11.494.622.385 1.132.196 1.132-.42 0-.617.983-1.433 2.184-1.814 2.083-.661 14.616 4.903 19.778 8.78 2.05 1.54 1.798 1.757-3.955 3.397-16.333 4.655-16.045 4.625-18.24 1.915-1.471-1.818-2.15-2.073-2.536-.955-.433 1.256-4.01 30.862-4.01 33.19 0 .385 1.339-.353 2.975-1.64 1.636-1.287 6.847-3.546 11.58-5.021zm-520.877-36.503c-4.12-9.751.065-19.256 9.378-21.302 4.424-.971 5.052.029 5.976 9.524 1.385 14.239 1.975 17.065 3.565 17.065.85 0 3.798-2.161 6.55-4.802 6.61-6.344 7.623-11.16 3.916-18.633-4.716-9.509-15.532-12.91-25.581-8.046-6.601 3.196-9.275 7.735-9.28 15.752-.005 5.172.628 7.258 3.524 11.63 1.94 2.93 3.714 5.14 3.942 4.913.227-.227-.668-2.973-1.99-6.101zm542.805-14.717c5.28-3.029 8.71-10.53 8.71-19.047 0-5.334-.588-7.8-2.543-10.672-4.65-6.834-7.97-8.463-17.25-8.463-7.953 0-8.507.174-12.323 3.873-5.079 4.923-6.663 9.783-6.095 18.7.517 8.124 3.816 13.586 10.168 16.836 4.657 2.383 14.084 1.785 19.333-1.227zM165.69 348.832c-.685-.685-1.35-.222-1.824 1.27-.962 3.03-7.684 4.876-16.134 4.43l-6.4-.337 12.031-10.733 12.032-10.734.044-5.649c.057-7.458-1.372-9.766-3.246-5.241-.771 1.861-2.16 3.675-3.087 4.03-.926.356-7.438.976-14.47 1.377l-12.784.73-2.035-3.837c-1.651-3.114-2.12-3.437-2.486-1.711-.248 1.17-.104 4.904.32 8.299l.772 6.173 2.818-2.65c2.514-2.365 4.058-2.686 14.31-2.982l11.492-.331-5.096 4.85c-2.803 2.668-9.158 8.524-14.123 13.014-7.016 6.346-8.67 8.399-7.43 9.219.911.603 8.002.787 16.535.429 14.36-.602 15.022-.53 17.046 1.844 2.102 2.466 2.107 2.458 2.45-3.955.19-3.534-.141-6.911-.735-7.505zm526.317-15.714c0-7.76-.083-8.009-2.066-6.214-1.418 1.283-4.103 1.87-8.556 1.87-5.552 0-6.436-.283-6.113-1.96.208-1.079 3.677-4.409 7.709-7.4 7.52-5.58 10.016-9.199 10.105-14.648.07-4.226-1.065-3.877-4.868 1.498-1.774 2.506-5.261 5.904-7.75 7.55l-4.524 2.995-2.984-3.631c-3.758-4.572-9.236-4.925-14.245-.917-3.176 2.54-3.395 3.265-4.163 13.778-.447 6.103-.564 11.497-.261 11.987.303.49 1.803.07 3.334-.932 2.282-1.496 5.127-1.734 15.801-1.326 11.501.44 13.306.786 15.486 2.966 1.357 1.357 2.609 2.468 2.781 2.468.173 0 .314-3.638.314-8.084zm-546.829-22.756c11.616-.491 13.32-.315 16.1 1.664l3.109 2.214-.113-4.878c-.104-4.531-1.782-12.14-2.034-9.226-.208 2.409-7.151 3.782-19.117 3.782-9.476 0-12.307-.379-13.954-1.87-1.984-1.795-2.065-1.537-2.06 6.497l.006 8.366 2.536-3c2.412-2.852 3.174-3.026 15.527-3.549zm528.826-15.482c13.589 0 14.592.152 16.205 2.455 2.587 3.694 3.047 1.138 2.682-14.912l-.319-14.027-5.518-2.047c-3.036-1.126-5.765-1.8-6.066-1.5-.301.301 1.294 2.7 3.546 5.33 3.663 4.279 6.32 10.265 6.337 14.278.01 2.38-5.252 3.644-15.178 3.644-13.425 0-16.418-.794-18.104-4.802-1.882-4.478-2.865-1.894-2.865 7.53 0 7.957.952 9.838 3.237 6.397 1.442-2.172 2.633-2.346 16.043-2.346zm-530.183-5.247c11.842-.694 12.996-.577 15.972 1.624 1.765 1.304 3.52 2.06 3.901 1.68.885-.886.872-9.136-.02-12.462-.843-3.15-2.676-3.344-2.676-.283 0 1.986-.754 2.26-6.214 2.26h-6.214V264.375h6.041c5.173 0 6.206.365 7.184 2.542 1.095 2.434 1.179 2.382 1.98-1.234.46-2.077.486-6.12.056-8.986l-.781-5.21-2.093 2.772c-2.028 2.686-2.536 2.772-16.344 2.772-13.686 0-14.331-.106-16.277-2.687l-2.026-2.687-.642 4.787c-1.102 8.219 1.245 16.49 2.893 10.19.52-1.991 1.54-2.259 8.605-2.259h8.014V282.452h-7.945c-7.19 0-8.033-.24-8.878-2.524l-.934-2.523-.84 2.646c-.461 1.455-.496 5.396-.075 8.759.737 5.902.829 6.034 2.657 3.842 1.61-1.93 3.803-2.383 14.656-3.019zm548.731-52.153c-2.259-18.718-25.837-21.5-35.377-4.175-1.414 2.569-1.84 6.157-1.758 14.812.11 11.67.984 15.642 2.794 12.707.697-1.13 4.81-1.63 15.677-1.905l14.732-.373 1.976 3.453 1.976 3.453.352-10.99c.194-6.043.026-13.686-.372-16.982zm-549.303 9.087c1.195-1.08 3.193-3.997 4.44-6.483 3.944-7.857 7.635-12.026 10.308-11.645 5.392.768 2.436 14.47-3.67 17.006-2.89 1.201-2.863 1.235 1.892 2.331 2.653.612 5.147.79 5.54.396.395-.394 1.329-3.97 2.076-7.947 1.076-5.726 1.064-7.932-.059-10.602-1.662-3.954-5.664-7.05-9.11-7.05-3.333 0-8.976 6.047-12.405 13.295-3.462 7.319-6.935 9.376-11.157 6.61-4.754-3.115-3.897-7.659 2.778-14.716 3.107-3.285 5.65-6.244 5.65-6.574 0-.894-10.56 1.459-11.804 2.63-1.634 1.538-2.652 13.534-1.504 17.737 1.99 7.293 11.43 10.072 17.025 5.012zm55.068-56.34c5.137-2.056 6.743-4.317 6.743-9.496 0-5.565-5.789-10.642-14.155-12.416-10.615-2.25-14.48-5.91-10.475-9.916 2.483-2.482 10.567-1.635 14.29 1.498 1.866 1.57 3.617 2.46 3.893 1.977 1.016-1.777-2.15-9.915-3.783-9.724a4425 4425 0 0 1-8.071.921c-7.258.824-11.574 3.569-12.707 8.082-1.702 6.783 2.701 10.873 15.089 14.017 9.849 2.5 13.365 7.823 7.759 11.75-3.947 2.764-9.025 2.158-14.372-1.715-2.636-1.91-5.043-3.223-5.348-2.918-.305.305.508 2.954 1.805 5.887l2.36 5.333 6.21-.73c3.417-.402 8.26-1.55 10.762-2.55zm441.166-4.306c6.565-2.743 10.68-11.985 9.097-20.428-.96-5.112-6.729-11.667-12.498-14.2-4.104-1.802-18.663-4.418-24.589-4.418-2.324 0-2.33.046-.24 1.575 2.021 1.478 2.07 2.161.789 11.024-1.947 13.462-4.143 21.152-6.543 22.907-1.875 1.372-1.474 1.64 4.083 2.721 3.39.66 7.18 1.421 8.423 1.692 5.313 1.157 17.839.648 21.478-.873zm-418.266-.781 6.366-1.279-2.622-2.062c-2.724-2.143-6.073-14.251-4.372-15.809.47-.43 4.365-1.377 8.658-2.104 9.391-1.59 10.37-.962 11.457 7.363.601 4.605.365 6.114-1.2 7.68-2.897 2.896-1.46 3.329 5.86 1.762 6.554-1.403 10.501-3.311 6.849-3.311-2.693 0-3.604-2.296-6.949-17.512l-2.98-13.558 2.45-2.005c3.57-2.924 2.097-3.409-5.697-1.875-7.451 1.466-9.347 2.733-5.783 3.864 1.348.428 2.702 2.373 3.4 4.883 2 7.206 1.694 7.826-4.534 9.162-9.317 1.998-13.128 1.637-13.92-1.319-1.254-4.68-.73-9.057 1.265-10.572 1.794-1.362 1.684-1.504-1.194-1.537-1.745-.02-5.438.535-8.207 1.232l-5.036 1.268 2.683 2.486c2.574 2.385 3.59 5.804 7.291 24.541.917 4.642.76 5.555-1.312 7.627-2.825 2.825-1.868 2.962 7.527 1.075zm379.099-8.674c1.474-2.678 2.462-5.086 2.196-5.352s-2.638 1.1-5.272 3.037c-5.604 4.121-13.062 5.433-16.45 2.894-2.082-1.56-2.12-2.182-.78-12.435 2.08-15.885 3.082-18.865 6.347-18.865 3.36 0 4.63-1.763 1.998-2.774-1.076-.413-5.268-1.05-9.315-1.415l-7.357-.665 2.217 2.5c2.176 2.451 2.181 2.752.272 15.919-2.327 16.053-2.623 16.94-5.66 16.94-1.529 0-1.978.388-1.27 1.096 1.615 1.615 18.249 4.432 24.761 4.194 5.398-.197 5.746-.41 8.313-5.074zm-334.246.877c2.796-.611 6.249-1.376 7.672-1.7 2.963-.674 2.296-2.782-.88-2.782-2.298 0-3.438-4.064-5.676-20.23-1.252-9.046-.755-12.535 1.784-12.535.89 0 1.619-.508 1.619-1.13 0-.621-.693-1.13-1.54-1.13-2.385 0-13.475 2.211-14.069 2.805-.29.29.552 1.43 1.872 2.534 1.836 1.534 2.802 4.526 4.11 12.738 2.15 13.503 2.155 17.438.024 19.207-1.79 1.486-2.275 3.409-.848 3.362.466-.015 3.135-.528 5.932-1.139zm292.264-5.895c-3.222-3.262-6.619-7.402-7.548-9.2-1.564-3.025-1.527-3.363.492-4.52 3.873-2.218 7.412-6.597 7.412-9.17 0-3.22-3.786-8.025-8.067-10.238-1.87-.967-7.684-1.989-13.175-2.315-8.976-.532-9.642-.432-7.679 1.157 1.95 1.579 2.081 2.783 1.413 12.98-.931 14.21-2.603 19.574-6.375 20.46-4.583 1.076-.703 2.518 8.334 3.097 7.849.502 7.974.469 5.366-1.446-2.335-1.714-2.604-2.655-2.14-7.48.291-3.036.882-5.872 1.312-6.302 1.362-1.363 4.512 1.4 8.14 7.14 5.934 9.387 8.738 11.769 13.855 11.769h4.518zm-264.302 1.83c3.08-.825 3.372-2.677.421-2.677-1.166 0-2.672-.664-3.345-1.475-1.52-1.832-3.851-16.392-3.366-21.03.356-3.406.47-3.33 14.482 9.6l14.122 13.034.383-4.301c.21-2.366-.22-9.81-.954-16.543-1.317-12.054-1.298-12.283 1.222-14.965 1.408-1.499 2.345-2.93 2.084-3.18-.612-.586-12.427 1.288-13.239 2.1-.338.338.453 1.757 1.757 3.153 2.985 3.192 7.083 20.05 4.875 20.05-.546 0-6.253-4.813-12.683-10.694-11.113-10.165-11.941-10.694-16.774-10.716-6.85-.03-9.536 1.64-5.255 3.267 1.728.658 3.561 1.195 4.073 1.195 1.227 0 2.014 4.93 2.958 18.526.756 10.879.704 11.239-1.912 13.25l-2.689 2.068 5.65.01c3.106.005 6.792-.297 8.19-.671zm218.213-4.308c4.963-2.567 9.399-9.76 9.984-16.191 1.336-14.675-15.59-25.967-29.936-19.973-8.527 3.563-12.69 9.661-12.69 18.588 0 9.076 4.543 15.547 13.168 18.756 5.232 1.947 14.515 1.384 19.474-1.18zm-45.047-17.542c4.405-8.68 9.252-16.762 10.772-17.957 1.52-1.195 2.763-2.482 2.763-2.858 0-.377-3.05-.685-6.779-.685-3.766 0-6.779.502-6.779 1.13 0 .621.763 1.13 1.695 1.13s1.695.711 1.695 1.581c0 2.098-7.878 20.862-9.067 21.597-.971.6-4.776-8.69-7.068-17.26-1.18-4.413-1.104-5.17.646-6.45 1.846-1.35 1.805-1.5-.585-2.15-1.412-.385-9.431-.991-17.82-1.347-12.723-.54-14.954-.4-13.45.843 2.546 2.104 4.752 6.806 8.386 17.873 4.602 14.015 7.111 19.471 8.548 18.583.684-.422 3.215-4.847 5.626-9.833 4.845-10.018 4.753-10.035 7.837 1.418 1.966 7.303 3.22 10.169 4.452 10.169.616 0 4.723-7.103 9.128-15.784zM351.37 163.976c2.486-1.13 5.217-2.899 6.07-3.93 1.994-2.41 1.537-2.362-4.953.509-6.661 2.946-12.067 2.305-16.52-1.961-3.746-3.589-6.312-10.228-4.61-11.929.622-.622 6.603-1.57 13.29-2.105 6.687-.535 12.63-1.446 13.209-2.024 1.345-1.345-1.351-6.622-5.24-10.255-2.137-1.996-4.6-2.87-9.16-3.248-5.341-.443-6.878-.092-10.71 2.444-7.069 4.678-10.154 12.774-7.966 20.901 1.371 5.092 5.967 11.16 9.55 12.61 4.027 1.628 12.319 1.136 17.04-1.012zm37.284-.256c4.705-1.27 11.842-5.473 11.855-6.982.005-.479-2.006.157-4.466 1.412-6.42 3.276-12.58 2.997-17.06-.772-3.766-3.169-6.711-8.754-6.711-12.726 0-2.19.675-2.296 14.687-2.296 8.078 0 14.688-.41 14.688-.909 0-.5-1.533-3.325-3.406-6.278-7.335-11.566-22.898-11.449-29.734.224-4.97 8.485-1.422 22.241 6.994 27.121 4.696 2.724 6.81 2.917 13.153 1.206z" style="fill:#fff;fill-opacity:1;stroke-width:1.12981" transform="translate(-67.646 -63.526)"/><path d="M407.5 64.377c-5.145-.115-10.28-.13-15.377.01-6.796.185-13.525.645-20.123 1.511-77.8 5.055-153.455 11.15-228 34.758-17.45 5.44-35.016 10.211-52 17.031-5.629 2.26-14.952 4.06-18.428 9.5-2.536 3.97-1.373 9.683-1.799 14.147-1.26 13.244-2.439 26.681-2.439 40 0 43.588-1.963 87.051-.053 130.666 4.229 96.559 10.02 197.736 48.623 288C150.758 676.823 210.085 744.241 276 794.512c29.716 22.664 60.815 42.388 93.334 60.72 10.464 5.9 28.947 19.397 41.332 18.631 12.57-.776 29.203-12.548 40-18.63 31.452-17.718 62.11-36.453 90.668-58.669 68.881-53.582 130.126-121.502 163.396-203.23 35.8-87.941 39.675-182.819 46.055-276 3.042-44.396-.119-88.955-.119-133.334 0-14.063 3.444-44.918-4.037-56.967-3.676-5.92-15.191-7.877-21.295-10.297-21.955-8.705-45.019-15.608-68-21.049-67.06-15.876-135.159-26.06-204-29.074-14.876-.651-30.4-1.892-45.834-2.236Zm-3.934 34.745c22.404-.342 43.537.666 65.369 2.162 54.348 3.726 109.4 12.792 162.73 24.304 20.313 4.385 40.554 10.138 60.4 16.236 5.912 1.816 16.013 4.537 19.898 9.776 2.541 3.425 3.923 10.337 3.971 14.333.127 10.664.284 20.673.332 31.401.177 39.584 1.14 79.252.219 118.866-2.084 89.517-9.863 189.168-47.699 271.8-27.297 66.697-71.828 122.31-130.054 166.532-27.716 23.874-58.254 45.744-90.23 63.49-9.9 5.494-27.011 17.124-38.502 17.856-12.456.792-32.342-14.868-42.706-21.123-38.281-23.102-74.856-50.43-107.288-81.374-46.218-39.217-81.576-87.707-106.26-142.715-40.024-87.09-52.086-186.86-48.531-278.666 1.414-36.514-9.088-72.833-1.679-114.333 1.991-11.15-2.17-37.864 3.797-47.47 3.16-5.088 12.135-5.807 17.402-7.574 12.856-7.534 31.297-9.233 48.599-12.455 68.273-17.918 136.45-27.286 207.665-30.051 7.335-.285 15.1-.881 22.567-.995zm-4.331 86.95c-35.437.06-70.734 3.078-106.786 8.044-25.842 3.56-51.985 7.745-77.36 13.976-6.111 1.853-20.689 3.563-25.718 4.892-.01 5.393.49 29.235-.022 38.106-1.979 34.357 8.105 69.384 3.491 103.717 6.112 64.223 10.739 128.44 34.867 189.256 21.253 53.57 60.516 99.513 103.824 136.8 17.394 14.976 33.88 30.525 52.98 43.255 7.36 4.907 17.452 10.736 26.172 12.8 9.32.557 20.522-11.977 27.622-16.23 30.427-20.374 59.249-43.62 84.088-70.543 26.318-28.528 47.897-56.76 64.189-92.246 20.124-43.832 30.98-95.514 36.085-143.17 7.26-67.814 7.77-136.043 9.333-202.335-77.966-16.093-154.805-26.454-232.765-26.322z" style="fill:#60a9b2;fill-opacity:1;stroke:none;stroke-width:1.33333" transform="translate(-67.646 -63.526)"/><path d="M392 833.768c-121.269-63.323-215.633-161.16-253.124-262.435-27.144-73.326-41.543-181.98-41.543-313.493 0-36.772 1.96-99.487 3.378-108.048.665-4.022 1.357-4.441 15.66-9.51 58.582-20.758 136.816-35.574 228.296-43.236 26.087-2.185 106.498-2.174 130.666.018 73.246 6.643 119.36 13.753 171.015 26.371 25.653 6.266 67.46 19.283 71.255 22.185 1.95 1.491 2.447 7.155 3.839 43.713 1.713 44.973.97 133.42-1.393 166-7.315 100.834-18.429 161.288-40.482 220.198-13.14 35.102-35.393 72.599-64.738 109.089-11.838 14.72-46.983 51.427-59.5 62.143-16.361 14.008-22.674 19.138-35.678 28.996-17.332 13.137-40.95 29.058-59.76 40.283-16.254 9.7-48.24 26.668-50.005 26.527-.67-.054-8.72-4.014-17.886-8.8zm70.467-26.683c29.266-18.07 59.123-39.63 81.982-59.2 14.767-12.644 54.817-53.596 65.084-66.552 33.057-41.713 55.28-80.896 69.161-121.95 19.685-58.212 31.351-130.878 36.077-224.716 1.582-31.4.91-159.795-.924-176.387-1.016-9.199.316-8.43-31.847-18.398-71.28-22.093-160.988-35.644-258-38.973-17.122-.588-63.327 1.304-92.667 3.794-79.437 6.74-161.592 22.764-213.333 41.609l-10.667 3.885-1.155 9.235c-1.907 15.245-1.76 172.593.187 198.568 9.724 129.78 28.648 205.912 67.218 270.418 46.227 77.311 126.962 150.638 217.75 197.77l18.667 9.69 19.134-10.013c10.524-5.507 25.524-13.958 33.333-18.78zm-74.991-8.56c-.323-1.022-1.619-9.058-2.88-17.858-3.307-23.08-3.166-22.92-9.71-11.065-5.524 10.007-6.764 14.826-4.22 16.398.734.453 1.334 1.423 1.334 2.154 0 1.25-6.177-1.996-13.447-7.066l-3.22-2.245 4.667.678c4.62.672 4.734.567 11.333-10.421 8.015-13.345 8.122-13.698 5.413-17.832-1.177-1.798-1.797-3.268-1.377-3.268.817 0 6.867 3.16 9.646 5.04.925.624 2.893 8.565 4.375 17.645 1.481 9.08 2.891 16.707 3.133 16.95.243.242 2.673-3.808 5.4-9 4.733-9.005 4.863-9.588 2.822-12.703-2.806-4.283-.762-4.17 7.015.389l6.235 3.654-3.89.679c-3.265.57-5.187 2.853-11.997 14.252-9.188 15.381-9.82 16.19-10.632 13.618zm53.58-9.21c-13.797-4.032-19.872-20.652-11.46-31.347 2.615-3.324 14.56-9.994 17.737-9.904 1.282.036 9.283 10.603 8.029 10.603-.337 0-3.015-1.252-5.95-2.783-4.664-2.43-5.95-2.58-10.171-1.187-12.027 3.97-9.148 23.19 4.316 28.816 8.028 3.354 16.71-2.469 18.585-12.467 1.22-6.507 3.69-5.473 2.798 1.172-1.546 11.525-13.55 20.119-23.885 17.098zm-96.098-16.542c-7.778-5.384-8.875-6.443-6.291-6.075 4.686.667 6.37-.213 7.073-3.698.407-2.017 1.119-4.645 1.582-5.84 1.202-3.108-7.598-8.486-10.95-6.692-4.644 2.485-7.324 6.533-6.352 9.594 1.055 3.324.553 3.213-6.337-1.395-5.97-3.993-6.21-4.89-1.308-4.89 2.375 0 8.86-3.432 18.05-9.555 13.788-9.185 18.242-11.174 18.242-8.144 0 .776-1.86 8.726-4.134 17.667-3.265 12.838-3.85 17.026-2.783 19.922 1.703 4.619 1.047 4.532-6.792-.894zm5.704-29.071 1.175-3.632-5.3 3.507-5.299 3.507 3.714 2.45c3.497 2.305 3.739 2.313 4.125.124.226-1.279.94-3.959 1.585-5.956zm122.671 29.863c0-.774.641-1.804 1.425-2.288 1.99-1.23 1.243-2.681-8.172-15.843-7.255-10.143-8.714-11.524-11.45-10.837-1.756.44-3.136.19-3.136-.572 0-.747.514-1.358 1.142-1.358.627 0 3.969-2.16 7.424-4.798 6.283-4.797 9.601-5.291 5.897-.877-3.096 3.689-3.199 3.467 9.853 21.35 5.078 6.96 5.142 6.996 8.886 5.06 4.37-2.261 8.131-9.323 8.131-15.27 0-2.273.54-4.132 1.2-4.132 1.756 0 4.841 13.764 3.208 14.309-.726.242-4.865 3.014-9.197 6.16-12.002 8.716-15.21 10.635-15.21 9.096zm-172.256-31.989c-7.235-5.677-7.754-6.84-2.898-6.494 2.917.209 4.95-1.558 11.987-10.415 6.934-8.73 8.359-11.345 7.84-14.4-.762-4.495-.945-4.585 13.668 6.756l11.008 8.544-2.736 3.843c-4.37 6.135-5.78 6.339-4.718.682.848-4.518.499-5.368-3.91-9.526-2.663-2.511-5.358-4.566-5.989-4.566-.631 0-2.485 1.879-4.12 4.176-3.86 5.42-2.19 8.49 4.62 8.49 2.662 0 4.839.203 4.839.45-.003 1.162-8.577 12.217-9.477 12.217-.563 0-.706-1.957-.318-4.348.54-3.323.04-4.953-2.12-6.907-2.808-2.542-2.85-2.53-6.741 2.016-4.78 5.58-6.084 9.034-4.144 10.974 1.68 1.68 1.94 3.642.465 3.508-.55-.05-3.815-2.3-7.256-5zm203.59 1.285c-2.2-1.355-6.944-6.152-10.542-10.662-4.947-6.2-7.384-8.209-10-8.239-3.303-.038-3.188-.276 2.542-5.293 6.669-5.84 8.822-6.694 6.652-2.64-1.718 3.21-1.44 3.743 7.149 13.764 7.984 9.315 11.465 11.002 16.9 8.19 4.49-2.321 6.632-5.72 6.632-10.526 0-5.017-15.336-22.512-18.776-21.42-3.68 1.167-3.166-.186 1.776-4.681 5.319-4.839 6.632-5.007 5.553-.711-.673 2.683.71 5.239 7.308 13.505 5.31 6.653 8.137 11.41 8.134 13.69-.008 5.56-4.828 12.065-11.023 14.877-6.985 3.17-7.384 3.176-12.305.146zM384.51 724.118c-68.799-45.825-119.717-99.802-149.788-158.785-30.664-60.148-46.713-166.41-46.72-309.34l-.002-43.34 16.156-3.803C264.89 194.553 345.45 185.36 410 185.36c63.954 0 130.523 7.416 199.667 22.244l22.333 4.79-.008 46.803c-.022 115.893-10.837 207.558-32.03 271.47-8.143 24.554-25.761 57.717-43.21 81.333-29.495 39.918-72.842 80.187-120.085 111.558-19.444 12.91-25.239 16.442-26.98 16.442-.734 0-12.063-7.147-25.177-15.882zm50.381-7.014c51.28-34.996 92.207-73.88 121.512-115.45 10.514-14.914 26.497-44.108 32.231-58.871 8.924-22.976 14.259-43.529 23.392-90.116 2.332-11.894 7.753-58.011 9.953-84.667 2.765-33.513 4.904-107.284 3.812-131.525l-.849-18.86-14.804-3.486c-67.388-15.87-166.653-25.468-229.471-22.188-65.297 3.41-133.987 12.668-180.504 24.331l-5.838 1.464.738 63.465c.406 34.906 1.034 65.566 1.397 68.132.362 2.567 1.047 10.067 1.522 16.667 4.795 66.668 17.862 137.108 32.278 174 8.143 20.839 24.691 50.141 39.531 70 12.296 16.453 22.334 27.75 42.07 47.338 22.155 21.99 47.08 42.16 75.903 61.42 25.401 16.973 19.53 17.18 47.127-1.654zm-28.242.502c-34.055-20.839-77.13-56.22-102.728-84.384-46.864-51.556-68.53-96.12-81.86-168.37-10.402-56.39-14.974-109.377-16.309-189.032-.791-47.21-.734-48.872 1.715-49.607 7.614-2.284 44.272-9.138 64.533-12.066 96.785-13.987 162.684-14.677 256.667-2.688 26.219 3.344 71 11.178 81.191 14.203l5.192 1.541-.785 50.065c-1.706 108.945-11.684 187.073-31.85 249.399-4.755 14.695-19.2 43.95-29.296 59.333-15.425 23.5-27.706 38.187-52.143 62.351-21.425 21.186-42.303 38.534-65.643 54.543-24.978 17.134-24.84 17.064-28.684 14.712zm22.684-18.713c60.902-41.484 109.172-93.552 134.967-145.587 10.318-20.813 18.786-47.862 25.663-81.973 11.324-56.16 16.231-109.34 17.62-190.924l.821-48.257-3.202-.734C553.192 219.495 486.041 211.37 426 209.737c-40.145-1.092-87.659 1.968-140 9.015-20.838 2.806-60.202 9.674-69.21 12.075l-5.211 1.39.847 48.891c1.78 102.685 12.065 183.864 30.435 240.225 20.854 63.985 76.247 129.517 153.628 181.75 7.236 4.885 13.836 8.495 14.667 8.022.83-.472 9.01-5.968 18.177-12.212zm-25.792-84.56c-4.01-4.9-8.68-14.229-23.527-47-1.66-3.666-7.059-15.366-11.996-26-4.937-10.633-16.86-36.471-26.497-57.418L324 445.83v-28.86l6.186.849c3.402.466 8.802.848 12 .848H348V442.294l12.52 27.186c6.885 14.953 17.627 38.287 23.87 51.853A25756.733 25756.733 0 0 0 400.37 556c2.546 5.5 6.19 13.494 8.1 17.764 2.072 4.634 4.05 7.405 4.907 6.876.789-.488 4.552-4.636 8.362-9.218 5.82-7 48.887-57.002 73.572-85.422 3.821-4.4 11.557-13.4 17.19-20l10.241-12 16.962-2.842c9.33-1.563 17.187-2.64 17.46-2.391.399.36-19.738 24.706-22.524 27.233-.405.367-6.112 6.967-12.684 14.667-6.572 7.7-12.264 14.3-12.649 14.666-.772.735-17.575 20.26-37.865 44-7.207 8.434-14.688 17.134-16.623 19.334-8.667 9.852-27.842 32.18-31.378 36.537-5.808 7.158-13.185 14.796-14.289 14.796-.535 0-3.06-2.55-5.611-5.667zM376 582.872c-4.033-4.82-18.133-21.393-31.333-36.828-13.2-15.435-25.8-30.226-28-32.87-7.321-8.797-49.154-57.83-49.917-58.507-.412-.367-5.484-6.266-11.27-13.108l-10.521-12.441 2.113-12.707c1.162-6.989 2.383-12.977 2.714-13.308.616-.616 21.064 3.303 21.972 4.21.276.277-.167 3.624-.985 7.438-1.402 6.538-1.295 7.173 1.878 11.092 3.708 4.58 9.717 11.776 50.016 59.894L350 518.374l9.255 19.813c5.09 10.897 12.8 27.204 17.132 36.237 4.332 9.033 7.667 16.601 7.411 16.818-.255.217-3.765-3.55-7.798-8.37zm37.333-11.049c0-.341 3.042-7.491 6.76-15.889 3.717-8.397 12.058-27.267 18.534-41.934 6.477-14.667 14.507-32.667 17.845-40l6.068-13.333 12.73-.382c7.002-.21 12.73-.143 12.73.149s-2.307 5.563-5.126 11.715c-2.82 6.151-7.72 16.953-10.892 24.004-5.126 11.397-8.612 16.253-31.42 43.769-27.336 32.977-27.229 32.85-27.229 31.901zm-54.688-122.025c-1.611-3.555-3.244-9.015-3.627-12.131L354.32 432H480.235l34.1-5.995c18.754-3.296 34.232-6.146 34.395-6.333.467-.534-2.024-17.41-2.665-18.051-.315-.316-9.268.99-19.894 2.903-26.084 4.693-24.303 4.988-25.3-4.19-.457-4.217-1.188-9.2-1.624-11.073l-.792-3.406 28.7-5.05c28.184-4.958 35.031-5.264 37.991-1.697 1.37 1.65 4.093 16.337 7.008 37.794l1.662 12.235-4.764 5.813-4.763 5.813-39.145 6.888L486 454.538l-62.213.863-62.212.863zM314 451.333c-.733-.251-4.172-.839-7.64-1.306-6.01-.809-6.882-1.509-18.428-14.771-6.666-7.658-11.603-13.923-10.972-13.923 4.485 0 39.834 7.128 40.472 8.16.441.714.922 5.02 1.069 9.569.146 4.549.584 9.321.973 10.605.676 2.236-1.698 2.959-5.474 1.666zm157.652-39.491c-.426-9.278-2.085-21.272-4.268-30.863-1.964-8.628-3.38-16.489-3.144-17.467.306-1.276 4.01-.044 13.088 4.354l12.66 6.134 2.29 12c1.258 6.6 2.311 17.786 2.339 24.857.057 14.752.682 14.027-13.221 15.32l-9.047.84zm-138.319.732c-1.1-.254-17-3.205-35.333-6.558-51.689-9.453-47.336-8.308-47.319-12.444.04-9.692 1.615-13.756 6.172-15.93 4.881-2.327 9.406-1.736 55.814 7.287 18.514 3.6 19.2 3.633 84.22 4.064l65.554.435 1.604 8.974c2.84 15.895 10.19 14.237-64.063 14.45-35.557.101-65.549-.023-66.649-.278zm-1.081-30.859c-1.695-.324-3.364-1.323-3.708-2.22-1.06-2.763 8.359-40.97 10.67-43.28 1.497-1.497 5.243-2.32 12.142-2.67 5.488-.276 9.977-.085 9.977.427 0 .734-5.143 24.154-10.036 45.695-.615 2.71-1.417 2.982-8.322 2.818-4.203-.1-9.028-.446-10.723-.77zm-46.585-7.417c-8.25-1.507-15-3.1-15-3.543 0-1.12 58.412-30.123 59.15-29.369.33.338-.728 6.614-2.352 13.947l-2.953 13.334-7.923 4.296c-9.136 4.953-10.729 5.022-30.922 1.335zm214.706-2.357a2844.814 2844.814 0 0 0-20.938-9.936l-9.978-4.672h-52.729c-29 0-52.73-.45-52.734-1-.004-.55 1.02-5.95 2.273-12l2.28-11H474.32l31.173 15.368c17.146 8.453 34.114 16.837 37.708 18.632 3.875 1.935 5.774 3.525 4.666 3.906-2.84.978-32.153 6.103-34.486 6.03-1.126-.035-6.98-2.433-13.008-5.328zM266.637 709.968c-10.157-10.213-10.897-11.284-7.294-10.565 3.642.728 4.906-.125 13.828-9.326 9.079-9.363 9.754-10.45 8.96-14.42l-.858-4.292 7.33 7.24c4.032 3.981 7.123 7.446 6.87 7.7-.254.254-2.073-.273-4.042-1.17-3.446-1.57-3.994-1.217-14.506 9.342L266 705.45l5.147 4.761c4.839 4.476 5.579 4.726 12.334 4.166 3.952-.328 7.186-.217 7.186.248 0 .674-11.153 6.708-12.399 6.708-.18 0-5.414-5.114-11.63-11.365zm274.703 8.686c1.47-2.747.757-3.839-8.87-13.564-9.126-9.22-10.94-10.486-14.137-9.867-2.016.39-3.666.549-3.666.352 0-1.163 14.495-15.525 16.912-16.757 7.263-3.702 15.088-.539 15.088 6.1 0 2.794.495 3.263 2.81 2.658 6.633-1.734 14.064 5.143 12.46 11.533-.468 1.865-5.008 7.479-10.09 12.474-10.013 9.846-13.106 11.927-10.507 7.071zm10.92-11.57c4.209-4.032 4.72-7.758 1.664-12.12-3.012-4.302-7.906-3.767-12.526 1.37l-3.898 4.333 4.854 5c2.67 2.75 5.15 5 5.51 5 .361 0 2.34-1.613 4.396-3.583zM538.924 695c3.224-3.754 3.676-6.501 1.566-9.514-2.575-3.676-8.12-3.632-12.09.098l-3.105 2.917 4.28 4.416c4.868 5.021 6.51 5.388 9.349 2.083zm-293.637-7.209c-5.458-6.472-5.594-6.824-2.317-6.001 2.95.74 3.905.188 6.256-3.616 3.547-5.74 3.49-7.702-.324-11.286-2.897-2.721-3.44-2.79-8.334-1.064-4.42 1.559-5.196 2.39-4.984 5.344.138 1.924-.312 3.499-1 3.499s-1.253-.45-1.257-1c-.004-.55-1.803-2.918-4-5.261-2.196-2.344-3.994-4.556-3.994-4.917 0-.36 2.042-.323 4.537.082 4.277.694 26.584-5.398 33.299-9.094 1.867-1.028 3.01-.87 4.501.622 1.777 1.777 1.329 3.088-4.026 11.783-9.328 15.148-12.758 22.335-12.015 25.177 1.031 3.942-.01 3.241-6.342-4.268zm12.679-23.725c2.741-5.301 2.703-5.355-2.633-3.717-4.857 1.49-5.789 3.329-3.066 6.051 2.411 2.412 3.469 1.979 5.699-2.334zm316.367 13.177c-2.75-1.452-5-3.076-5-3.608 0-.533 3.237-.968 7.194-.968 8.934 0 13.14-3.109 12.538-9.266-.33-3.376-1.05-4.142-4.237-4.506-2.13-.243-7.248 1.092-11.5 3-9.26 4.156-10.645 4.217-15.148.675-5.817-4.576-4.898-10.622 2.725-17.926 3.431-3.287 6.581-5.958 7-5.935.975.054 8.095 6.3 8.095 7.1 0 .332-2.371.286-5.269-.103-4.578-.614-5.802-.173-9.332 3.356-4.315 4.316-4.318 7.588-.007 8.957 1.401.444 5.813-.79 10.142-2.838 9.41-4.452 14.138-4.58 18.477-.504 5.42 5.092 4.55 10.792-2.86 18.713-3.4 3.636-6.55 6.584-7 6.551-.45-.032-3.067-1.247-5.817-2.698zm-357.4-25.4c-4.912-6.616-5.754-9.957-1.649-6.55 2.644 2.194 4.234 1.48 16.898-7.587 8.878-6.356 10.582-8.157 10.1-10.676-.905-4.736 1.056-3.604 6.229 3.597l4.761 6.627-3.734-.746c-2.97-.594-5.49.5-12.303 5.343-14.385 10.224-15.04 10.868-14.228 13.973 1.186 4.535-.634 3.342-6.073-3.982zm383.805 1.013c.866-3.45-2.292-6.444-17.054-16.17-6.401-4.218-7.984-4.763-9.7-3.34-4.087 3.392-3.391.096 1.383-6.549 5.258-7.319 6.688-8.366 5.566-4.079-.455 1.744.326 3.696 2.178 5.443 6.064 5.718 6.755 5.563 12.683-2.842l5.556-7.878-4.887-3.321c-3.638-2.472-5.491-2.997-7.254-2.054-4.15 2.222-4.01 1.43 1.11-6.308 4.897-7.399 5.024-7.485 5.414-3.667.321 3.141 2.285 5.25 10 10.737 12.817 9.115 15.515 10.458 17.343 8.629 3.753-3.753 2.998-.753-1.467 5.825-5.415 7.98-6.887 9.027-5.974 4.256.462-2.421-.604-4.081-4.71-7.334-2.92-2.312-5.822-4.185-6.45-4.163-1.3.047-9.246 10.275-10.478 13.487-.577 1.503 1.023 3.338 5.49 6.296 5.665 3.753 6.527 3.973 8.516 2.173 4.526-4.096 3.584-.22-1.647 6.773-2.974 3.977-5.632 7.23-5.907 7.23-.275 0-.145-1.415.29-3.144zm-392.233-17.438c-10.441-4.545-14.619-18.193-8.566-27.986 2.945-4.765 12.025-10.099 17.191-10.099 4.832 0 11.548 3.414 14.767 7.505 2.85 3.622 6.77 11.633 6.77 13.833 0 1.285-9.323 8.45-10.05 7.724-.297-.297.676-2.998 2.162-6.001 2.46-4.975 2.531-5.868.792-10.031-2.807-6.718-8.47-8.733-16.224-5.772-17.168 6.556-16.818 26.77.512 29.541 3.011.482 5.474 1.399 5.474 2.038 0 1.768-8.133 1.291-12.828-.752zm420.845-24.142c-.015-3.695-1.082-4.68-11.919-11-11.945-6.968-16.697-8.376-17.804-5.276-.327.917-1.004 1.29-1.503.83-.5-.46 1.171-4.287 3.712-8.505 4.394-7.294 4.642-7.484 5.059-3.893.373 3.215 2.307 4.852 13.008 11.012 10.752 6.189 12.94 7.004 15.13 5.637 1.408-.88 2.757-1.403 2.997-1.162.24.24-1.61 4.032-4.113 8.425-4.219 7.407-4.552 7.694-4.567 3.932zM184.603 600c-4.908-9.18-5.38-10.418-3.17-8.333 2.96 2.793 6.745 1.82 18.561-4.767 9.499-5.296 11.447-6.955 12.071-10.274.738-3.93.773-3.906 4.665 3.374 4.909 9.18 5.38 10.418 3.17 8.333-3-2.83-6.81-1.831-18.567 4.869-9.29 5.295-11.466 7.15-12.07 10.295-.723 3.755-.821 3.682-4.66-3.497zm458.158-11.503c-.117-5.16-.68-5.595-15.205-11.758l-11.777-4.997-2.975 2.796c-4.329 4.066-4.728 3.505-2.305-3.24l2.168-6.037 15.705-5.113c8.638-2.813 16-5.409 16.36-5.769 1.073-1.073-13.987-6.379-18.105-6.379-2.092 0-4.174.6-4.627 1.333-.453.734-1.334 1.334-1.956 1.334-.623 0 .162-3.3 1.745-7.331 3.18-8.101 4.488-9.087 5.122-3.863.373 3.07 2.16 4.182 15.422 9.595 8.25 3.368 15 6.808 15 7.646 0 .838-4.95 2.845-11 4.46-6.05 1.617-14.546 4.229-18.88 5.805l-7.88 2.867 5.545 2.355c3.05 1.295 8.594 3.43 12.321 4.743 6.754 2.381 6.786 2.38 9.17-.554 3.253-4 4.434-2.318 1.863 2.654-1.15 2.221-2.883 6.195-3.853 8.83l-1.764 4.793-.094-4.17zM200 573.429c0-.607.9-1.85 2-2.762 3.421-2.84 1.534-17.334-2.257-17.334-1.949 0-10.41 3.81-10.41 4.687 0 2.436 3.274 6.286 6.415 7.542 3.577 1.432 3.57 1.442-3.587 4.653-3.945 1.77-7.54 2.85-7.99 2.401-.448-.449.23-1.4 1.507-2.116 2.415-1.351 3.108-7.197 1.207-10.192-.84-1.323-2.578-1.067-7.98 1.178-6.193 2.574-6.905 3.291-6.905 6.958 0 5.133-1.4 3.588-5.122-5.653-2.955-7.335-2.876-10.454.159-6.304 1.551 2.121 2.713 1.865 15.643-3.45 12.666-5.206 14.041-6.111 14.764-9.722l.797-3.982 1.624 4c.893 2.2 3.757 8.983 6.363 15.072 2.607 6.09 4.522 11.277 4.256 11.527-1.52 1.428-10.484 4.418-10.484 3.497Zm-13.333-34.06c0-.446 1.276-2.536 2.835-4.646 2.808-3.797 2.854-10.006.108-14.323-1.196-1.88-12.277.391-12.277 2.517 0 2.842 3.05 6.632 6.415 7.97 3.566 1.419 3.549 1.44-3.081 3.833-9.439 3.407-11.084 3.272-7.436-.61 2.394-2.55 2.837-4.098 2.115-7.387-.986-4.49-.535-4.46-11.346-.734-3.554 1.226-4.839 2.531-5.387 5.477-.637 3.417-1.056 2.786-3.6-5.422-3.013-9.725-2.94-12.27.232-7.947 1.856 2.53 2.058 2.524 13.16-.402 16.145-4.256 18.262-5.221 18.262-8.329 0-6.116 2.404-1.927 5.912 10.3l4.364 15.205c.61 2.122.121 2.409-7.943 4.658-1.283.358-2.333.286-2.333-.16zm452.67-4.136c-5.95-3.102-8.405-5.722-10.058-10.732-1.889-5.721-.633-11.48 3.599-16.509 3.313-3.937 12.952-7.94 14.762-6.13.525.526-.618 6.925-2.542 14.222l-3.497 13.266 3.249.815c4.366 1.096 11.093-.367 14.068-3.06 3.52-3.184 5.302-10.989 3.773-16.512-1.156-4.175-1.095-4.36.668-2.028 5.749 7.6 2.521 21.727-6.005 26.285-5.66 3.025-12.664 3.174-18.018.383zm2.01-12.9c.798-3.116 1.99-7.316 2.649-9.333 1.159-3.545 1.039-3.667-3.627-3.667-6.03 0-9.702 3.2-9.702 8.454 0 4.183 4.436 10.213 7.514 10.213.944 0 2.369-2.55 3.166-5.667zm-481.855-14.337c-8.637-2.68-14.165-11.386-14.15-22.287.016-11.305 7.738-19.018 19.058-19.034 8.152-.01 13.205 2.626 17.096 8.922 4.167 6.742 4.376 18.583.422 23.885-5.797 7.774-14.348 11.02-22.426 8.514zm13.827-8.655c5.396-2.79 8.014-7.07 8.014-13.103 0-11.406-14.71-17.098-25.47-9.855-8.908 5.997-9.902 15.209-2.33 21.581 4.701 3.955 13.602 4.575 19.786 1.377zm474.84-6.235c-14.54-7.196-13.061-27.488 2.31-31.732 2.538-.7 5.028-1.018 5.534-.705.507.313-.19 6.342-1.548 13.399-1.358 7.057-2.13 13.378-1.717 14.048 2.056 3.325 15.324-.582 17.821-5.249 1.97-3.678 1.82-15.242-.226-17.536-1.417-1.59-1.318-1.606.66-.109 3.203 2.423 5.528 10.914 4.496 16.416-.855 4.558-5.573 10.043-11.068 12.866-4.413 2.267-9.793 1.805-16.263-1.398zm2.94-10.773c.438-3.116 1.195-7.616 1.682-10 .849-4.153.713-4.333-3.281-4.333-9.36 0-12.742 10.368-5.398 16.548 2.257 1.899 4.575 3.452 5.152 3.452.578 0 1.408-2.55 1.846-5.667zm-508.228-41.638c-9.683-11.028-5.554-26.104 8.205-29.956 15.105-4.23 27.87 8.12 23.16 22.404-1.381 4.189-8.527 10.857-11.635 10.857-.552 0-1.75-6.3-2.663-14-.913-7.7-2.191-14-2.841-14-3.215 0-10.315 4.1-12.99 7.501-2.44 3.1-2.849 4.829-2.161 9.127.466 2.916 1.628 6.218 2.581 7.337 2.263 2.655 3.79 5.368 3.023 5.368-.334 0-2.44-2.087-4.68-4.638zm29.157-10.08c2.159-4.034 1.49-7.884-1.967-11.342-1.8-1.8-4.821-3.273-6.713-3.273-3.361 0-3.422.16-2.647 7 1.482 13.078 1.46 13.037 6.001 11.454 2.212-.77 4.608-2.499 5.326-3.84zM645.95 438c.328-2.2 1.313-10.833 2.189-19.185 1.508-14.374 1.694-14.991 3.491-11.561 1.192 2.274 2.623 3.345 3.844 2.877 1.07-.411 5.676-1.684 10.236-2.829 4.56-1.145 9.17-2.387 10.244-2.76 2.332-.81-16.195-11.209-19.97-11.209-1.385 0-3.13 1.05-3.877 2.334-1.11 1.906-1.363 1.479-1.382-2.334-.012-2.566.338-6.01.779-7.653l.8-2.986 2.524 3.208c1.388 1.765 9.27 6.945 17.515 11.51 8.244 4.567 15.24 8.517 15.546 8.779 1.16.994-1.137 1.963-9.378 3.952-4.68 1.13-9.405 2.347-10.498 2.704-1.22.398 1.735 2.713 7.667 6.003 5.31 2.944 9.653 5.896 9.653 6.56 0 .663-1.65 1.61-3.666 2.103-22.783 5.573-31.733 8.582-33.923 11.406l-2.39 3.081ZM660 426.745c2.567-.683 7.32-1.93 10.562-2.773l5.895-1.531-7.222-3.95c-7.568-4.138-10.961-4.212-16.902-.37-2.004 1.297-3 3.257-3 5.91 0 4.442 2.13 4.983 10.667 2.714zm-522.028-27.567c-7.856-10.3-5.441-23.793 5.116-28.587 7.022-3.188 10.802-3.188 17.824 0 8.676 3.94 12.33 14.243 8.049 22.702-1.553 3.069-9.423 9.374-11.7 9.374-.557 0-1.434-5.62-1.949-12.49-1.17-15.624-1.542-16.301-7.8-14.236-9.683 3.196-13.035 13.358-7.435 22.543 3.776 6.193 2.428 6.638-2.105.694zm24.312-5.911c4.552-1.587 7.561-6.887 6.252-11.012-1.221-3.847-5.917-7.491-9.722-7.544-3.064-.043-3.153.222-2.345 6.956.463 3.85.846 8.35.853 10 .013 3.483-.222 3.407 4.962 1.6zm498.884-10.72c-11.942-7.117-12.362-27.924-.737-36.452 5.205-3.819 16.616-3.825 21.722-.012 7.024 5.244 9.161 9.439 9.048 17.76-.176 12.921-6.613 20.292-18.441 21.115-5.144.358-7.915-.218-11.592-2.41zm18.034-5.74c11.413-4.768 11.917-20.201.81-24.802-12.333-5.109-25.345 1.334-25.345 12.55 0 4.057 6.995 12.39 11.064 13.18 5.812 1.126 9.096.9 13.47-.927zM164 359.95c-1.875-2.454-3.02-2.555-18.314-1.604-11.65.724-16.477.587-16.886-.479-.315-.82 2.226-3.667 5.647-6.325 3.42-2.658 9.82-8.292 14.22-12.52l8-7.689-8-.414c-11.612-.602-16.324.588-18.457 4.66-1.725 3.293-1.851 3.011-2.558-5.724-.817-10.119-.393-11.977 1.562-6.836.708 1.864 1.944 3.794 2.745 4.289.8.495 7.521.47 14.934-.056 13.257-.94 13.502-1.018 14.918-4.77 2.197-5.82 3.534-4.573 3.416 3.185l-.106 7-11.865 10.666c-6.526 5.867-11.878 11.044-11.894 11.505-.039 1.125 15.857-.196 19.638-1.632 1.65-.627 3-2.055 3-3.173 0-1.118.544-2.033 1.21-2.033.665 0 1.415 3.3 1.667 7.335.497 7.988.139 8.562-2.877 4.614zm525.163-21.14c-1.505-2.077-4.245-2.679-15.44-3.391-12.564-.8-13.818-.657-16.333 1.857-1.498 1.498-2.873 2.724-3.057 2.724-.298 0-.196-10.944.189-20.139.225-5.403 5.791-10.528 11.434-10.528 3.832 0 5.213.762 7.145 3.939l2.395 3.939 3.976-2.418c4.068-2.474 10.456-9.337 11.551-12.41 1.318-3.697 2.524.406 1.647 5.6-.815 4.823-1.85 6.097-8.466 10.419-8.068 5.27-9.485 6.65-9.517 9.265-.014 1.128 2.284 1.666 7.11 1.666 6.075 0 7.343-.443 8.576-3 1.2-2.488 1.462-1.463 1.537 6 .05 4.95-.137 9-.414 9-.277 0-1.327-1.136-2.333-2.524zM672 324.266c0-5.998-1.877-8.267-6.838-8.267-4.695 0-7.829 3.196-7.829 7.984 0 4.384 1.229 5.1 9 5.244l5.667.105Zm-545.243-16.6c.074-7.945.348-9.133 1.537-6.667 1.363 2.826 2.25 3 15.33 3 14.44 0 18.916-1.175 19.225-5.047.1-1.257.632 1.614 1.182 6.38.55 4.767.817 8.867.595 9.111-.222.245-1.716-.868-3.32-2.472-2.224-2.223-3.874-2.725-6.945-2.11-2.215.442-8.468.805-13.894.805-9.297 0-9.94.192-11.134 3.333-2.059 5.416-2.672 3.91-2.576-6.333zm527.91-16.922c0-5.09.6-9.625 1.333-10.078.733-.454 1.333.291 1.333 1.654 0 4.814 2.688 5.679 17.642 5.679 16.062 0 16.673-.351 15.107-8.696-.518-2.764-2.814-6.614-5.613-9.413-2.605-2.604-4.504-4.967-4.22-5.25.283-.284 3.343.502 6.8 1.745l6.284 2.26v15.677c0 14.313-1.282 19.78-3.053 13.01-.647-2.474-1.818-2.666-16.28-2.666-14.462 0-15.633.192-16.28 2.666-1.48 5.656-3.053 2.26-3.053-6.588zm-528.212-3.365c-.446-8.792.56-12.622 1.935-7.365.597 2.28 1.83 2.652 8.819 2.652h8.124V264h-8.124c-7.004 0-8.222.368-8.823 2.667-1.443 5.518-3.053 2.354-3.053-6 0-8.355 1.61-11.519 3.053-6 .647 2.474 1.819 2.666 16.28 2.666 14.462 0 15.634-.192 16.281-2.666 1.448-5.538 3.053-2.342 3.053 6.078 0 5.491-.496 8.439-1.333 7.922-.734-.454-1.334-1.689-1.334-2.746 0-1.416-1.75-1.921-6.666-1.921H148v18.667h6.667c5.777 0 6.666-.356 6.666-2.667 0-1.467.6-2.667 1.334-2.667.76 0 1.32 3.87 1.303 9-.029 8.858-.066 8.952-2.375 5.952-2.227-2.893-3.086-3.028-16.934-2.666-13.86.362-14.667.54-16.17 3.559-1.404 2.822-1.632 2.174-2.036-5.798zm564.574-25.09c-1.636-3.619-1.656-3.623-16-3.603-14.69.021-16.801.489-17.96 3.98-.364 1.1-1.107-3.233-1.65-9.628-1.087-12.828.276-19.506 5.079-24.878 6.02-6.734 17.202-8.766 23.909-4.344 6.907 4.554 8.175 7.785 8.708 22.183.272 7.333.282 14.814.023 16.624l-.471 3.29-1.638-3.623zm-1.743-11.536c3.178-5.937.916-15.916-4.395-19.396-4.318-2.83-14.037-2.88-19.412-.1-7.142 3.693-11.054 17.582-5.812 20.635 1.283.748 8.162 1.377 15.286 1.4 11.466.036 13.112-.256 14.333-2.539zm-560.68-4.693c-3.43-3.431-3.884-6.562-2.457-16.976.807-5.886.89-5.968 7.334-7.288 3.584-.734 6.517-1.129 6.517-.877s-2.7 3.045-6 6.207c-6.447 6.177-7.713 10.97-3.905 14.778 4.076 4.076 9.688 1.49 11.794-5.436.48-1.576 2.654-5.326 4.833-8.334 5.642-7.788 12.726-7.358 17.204 1.046 1.363 2.557 1.37 4.714.036 11l-1.66 7.819h-5.15c-2.834 0-5.152-.6-5.152-1.333 0-.734.856-1.334 1.903-1.334 5.6 0 10.253-15 5.25-16.92-3.34-1.282-6.182 1.196-9.606 8.378-1.716 3.598-4.37 7.892-5.9 9.542-3.839 4.145-10.749 4.02-15.04-.272zm50.17-58.151c-1.517-3.138-2.487-5.977-2.156-6.307.33-.331 2.472.973 4.76 2.898 5.503 4.631 10.251 5.718 14.528 3.326 7.754-4.337 3.777-10.944-7.923-13.163-3.939-.747-8.538-2.26-10.22-3.361-5.71-3.742-5.334-12.433.703-16.203 1.268-.792 5.896-1.857 10.285-2.366l7.978-.926 1.45 5.43c1.599 5.992.795 6.787-2.824 2.788-4.873-5.384-16.69-4.541-16.69 1.191 0 3.7 2.865 5.383 11.853 6.966 9.304 1.64 14.813 6.533 14.813 13.157 0 6.522-4.862 9.916-16.234 11.333l-7.567.943zm434.017-2.05c-9.03-1.795-12.707-3.193-8.395-3.193 3.184 0 4.37-3.11 7.048-18.495 2.35-13.491 2.347-13.872-.107-15.666-3.017-2.206-2.897-2.21 11.223-.44 12.647 1.586 16.977 3.417 21.893 9.259 4.476 5.32 5.623 11.797 3.352 18.925-3.59 11.268-13.28 13.928-35.014 9.61zm21.585-2.608c6.588-4.614 9.052-16.664 5.007-24.486-2.019-3.903-10.208-8.1-15.806-8.1-2.796 0-3.253 1.127-5.815 14.305-1.529 7.867-2.5 15.035-2.157 15.927 1.571 4.096 14.05 5.66 18.77 2.354zm-421.29 1.209 3.03-2.461-2.68-13.809c-2.754-14.185-4.245-17.524-7.823-17.524-4.077 0-.367-1.567 7.596-3.208 7.472-1.54 11.08-.88 5.952 1.089-1.715.658-2.028 2.102-1.49 6.875.374 3.323.94 6.302 1.258 6.62.761.76 17.462-2.106 18.677-3.206.517-.469.292-3.406-.5-6.528-1.13-4.448-2.197-5.865-4.941-6.556-3.062-.77-2.581-1.095 3.833-2.594 4.033-.942 8.45-1.738 9.814-1.77 2.23-.05 2.181.187-.485 2.347l-2.967 2.402 3.152 15.21c2.886 13.923 3.435 15.283 6.486 16.073 3.333.863 3.332.863-.667 1.796-14.91 3.48-16.407 3.504-11.872.188 1.73-1.265 1.95-2.979 1.18-9.147-1.071-8.576-.936-8.514-13.205-6.05l-7.676 1.542.918 6.125c1.21 8.069 2.786 10.767 6.369 10.906 2.747.107 2.719.186-.407 1.136-1.847.562-6.335 1.468-9.971 2.013-6.579.987-6.597.979-3.582-1.47zm365.123-4.297c-7.218-1.19-12.668-2.614-12.111-3.164.556-.55 2.044-1 3.307-1 2.475 0 2.694-.81 5.382-19.883 1.46-10.352 1.395-11.352-.84-12.986-3.63-2.654-2.18-2.917 7.718-1.402 8.728 1.337 12.343 3.604 5.745 3.604-4.317 0-4.647.726-6.826 15.043-2.544 16.705-2.555 16.606 2.08 17.624 5.78 1.27 10.7-.197 15.87-4.728 2.495-2.188 4.754-3.76 5.02-3.494.265.266-1.077 3.274-2.984 6.686-3.945 7.059-2.973 6.898-22.361 3.7zm-319.544-2.42c0-.606 1.11-1.796 2.467-2.643 2.329-1.455 2.367-2.239.675-13.988-2.484-17.255-2.727-18.008-6.128-19.06-2.87-.886-2.823-.983.986-2.018 7.113-1.935 14-2.566 14-1.285 0 .688-.856 1.25-1.903 1.25-2.82 0-3.067 3.42-1.157 16 2.508 16.518 2.778 17.333 5.752 17.333 5.212 0 2.512 2.382-3.692 3.258-3.484.492-7.384 1.2-8.667 1.575-1.283.374-2.333.184-2.333-.422zm294.32-2.077c-1.203-.917-4.192-5.263-6.64-9.659-6.435-11.55-10.275-10.967-10.329 1.569-.013 3.133.706 4.473 2.75 5.122 5.065 1.608 1.549 2.214-7.33 1.263-8.649-.926-11.577-2.705-5.82-3.536 3.49-.504 4.486-4.153 5.846-21.426.812-10.307.663-11.667-1.273-11.667-1.205 0-2.191-.543-2.191-1.207 0-1.444 14.884-.437 20.98 1.42 5.002 1.524 9.687 6.868 9.687 11.05 0 3.365-4.541 8.737-7.386 8.737-1.071 0-1.948.612-1.948 1.36 0 2.62 6.533 11.676 10.913 15.127l4.42 3.484-4.744.015c-2.61.008-5.73-.736-6.934-1.652zm-3.082-23.096c4.48-4.48.473-12.44-6.522-12.95-3.767-.274-3.995.016-4.925 6.294-.536 3.62-.673 7.07-.304 7.667 1.169 1.892 9.57 1.17 11.75-1.01zm-268.117 20.021 3.787-2.137-.946-14.228c-.52-7.825-1.182-14.63-1.47-15.124-.288-.494-2.316-1.292-4.508-1.773-6.01-1.32-4.79-3.016 2.545-3.535l6.529-.462 12.457 11.57c6.852 6.362 12.668 11.358 12.925 11.102.256-.257-.165-4.563-.937-9.57-1.095-7.1-2.164-9.761-4.861-12.102-1.93-1.674-2.688-3.035-1.717-3.08.958-.043 4.591-.548 8.075-1.121 3.483-.573 6.333-.784 6.333-.468 0 .317-1.31 1.636-2.91 2.932-2.907 2.353-2.908 2.38-.962 18.88 1.073 9.088 1.45 16.735.838 16.993-.612.258-7.411-5.66-15.11-13.151-7.7-7.49-14.304-13.314-14.677-12.942-.73.73 1.824 21.213 3.04 24.379.403 1.051 2.169 1.912 3.924 1.912s3.19.6 3.19 1.333-1.95 1.356-4.333 1.384c-2.383.027-6.733.342-9.667.698l-5.333.648Zm209.44-3.041c-9.952-4.665-14.138-13.412-11.358-23.736 3.835-14.24 22.96-19.412 35.45-9.587 4.15 3.264 7.347 9.926 7.347 15.308 0 5.509-4.797 14.239-9.279 16.886-6.199 3.662-15.72 4.147-22.16 1.129zm15.822-2.998c7.46-3.399 10.19-17.65 5.009-26.147-4.868-7.984-16.715-7.555-22.351.809-5.134 7.617-3.332 21.487 3.292 25.345 3.089 1.799 10.095 1.795 14.05-.007zm-50.12.447c-.307-.55-1.936-5.5-3.62-11l-3.06-10-4.74 10.333c-2.606 5.684-5.362 10.319-6.124 10.3-.762-.018-3.988-8.188-7.168-18.155-4.42-13.853-6.383-18.278-8.333-18.788-5.424-1.419-2.151-2.464 6.448-2.06 20.655.969 29.09 1.993 26 3.155-1.65.621-3 1.863-3 2.76 0 3.426 7.136 23.844 7.983 22.842 1.654-1.956 9.35-20.394 9.35-22.399a2 2 0 0 0-2-1.988c-1.1 0-2-.615-2-1.367 0-.798 3.057-1.268 7.334-1.128 7.883.258 9.122 1.252 4.297 3.45-2.08.948-5.546 6.68-11 18.191-7.538 15.91-9.045 18.214-10.366 15.854zm-11.011-18.582c3.045-7.054 1.969-14.223-2.583-17.205-3.762-2.465-8.67-1.405-8.67 1.872 0 3.902 6.923 23.2 7.904 22.033.517-.615 2.024-3.63 3.349-6.7zm-113.457 15.51c-9.304-5.96-11.293-21.435-3.765-29.293 9.056-9.452 22.414-8.045 28.106 2.962 2.942 5.689 2.37 6.402-5.136 6.415-3.85.007-10.15.39-14 .852-7.805.937-8.69 2.667-5.008 9.788 4.23 8.181 13.406 10.404 21.806 5.283 2.803-1.71 4.253-2.08 3.896-.995-1.014 3.08-10.816 7.683-16.361 7.682-3.074 0-7.115-1.141-9.538-2.694zm16.63-22.013c2.086-.675.96-5.404-2.123-8.915-3.192-3.634-10.235-3.02-13.539 1.18-1.52 1.932-2.763 4.82-2.763 6.418 0 2.73.504 2.875 8.333 2.396 4.583-.28 9.125-.766 10.092-1.079zm30.241 22.438c-15.161-3.775-18.238-27.457-4.613-35.506 5.373-3.174 14.764-2.828 19.262.71 3.047 2.397 7.351 9.658 7.351 12.4 0 .39-6.647.71-14.772.71h-14.773l.875 4.333c2.518 12.468 13.994 17.535 24.453 10.795 1.713-1.105 3.418-1.705 3.789-1.335.37.37-1.632 2.155-4.45 3.966-5.32 3.42-12.522 5.072-17.122 3.927zm6.907-24.335 6.907-.018-1.19-4.15c-2.205-7.69-8.854-10.008-14.95-5.213-3.211 2.526-5.475 8.45-3.85 10.076.426.426 1.99.448 3.476.05 1.485-.4 5.808-.735 9.607-.745z" style="fill:#0c3c48;stroke-width:1.33333" transform="translate(-67.646 -63.526)"/></svg>